<?xml version="1.0" standalone="no"?>
<!DOCTYPE svg PUBLIC "-//W3C//DTD SVG 20010904//EN"
 "http://www.w3.org/TR/2001/REC-SVG-20010904/DTD/svg10.dtd">
<svg version="1.0" xmlns="http://www.w3.org/2000/svg"
 width="1024.000000pt" height="1024.000000pt" viewBox="0 0 1024.000000 1024.000000"
 preserveAspectRatio="xMidYMid meet">

<g transform="translate(0.000000,1024.000000) scale(0.100000,-0.100000)"
fill="#000000" stroke="none">
<path d="M5446 10232 c14 -9 34 -103 34 -157 0 -24 5 -47 10 -50 6 -3 10 -20
10 -37 0 -73 35 -238 50 -238 6 0 10 -18 10 -39 0 -22 4 -42 9 -45 5 -3 12
-31 16 -63 4 -31 13 -66 21 -78 8 -12 19 -55 24 -96 6 -41 13 -95 16 -121 4
-27 10 -48 14 -48 12 0 30 -212 30 -360 0 -144 -16 -320 -29 -330 -4 -3 -14
-47 -23 -98 -9 -52 -18 -96 -20 -98 -8 -7 -477 -26 -688 -28 -233 -1 -468 14
-478 31 -4 6 -33 14 -65 18 -31 4 -60 11 -63 16 -6 10 -84 12 -108 3 -12 -5
-11 -12 10 -47 13 -23 36 -67 51 -97 16 -30 36 -63 46 -72 9 -10 17 -24 17
-32 0 -7 7 -19 15 -26 8 -7 25 -33 37 -59 13 -25 28 -50 34 -56 6 -5 17 -26
25 -45 7 -19 20 -42 29 -51 31 -33 50 -60 50 -70 0 -11 90 -132 103 -137 4 -2
5 -8 1 -13 -3 -5 0 -9 6 -9 6 0 14 -10 19 -22 8 -20 43 -70 81 -115 6 -7 7
-13 3 -13 -4 0 3 -7 15 -16 12 -8 22 -21 22 -29 0 -8 6 -18 13 -22 6 -4 21
-24 31 -43 11 -19 30 -46 43 -60 13 -14 23 -31 23 -38 0 -7 6 -15 14 -18 8 -3
17 -16 20 -30 4 -13 11 -24 16 -24 5 0 19 -21 31 -47 12 -27 28 -55 36 -65 13
-15 9 -20 -37 -57 -29 -23 -57 -41 -63 -41 -6 0 -20 -9 -31 -19 -24 -22 -105
-51 -141 -51 -14 0 -25 -4 -25 -8 0 -5 -44 -17 -97 -26 -54 -10 -107 -22 -119
-28 -11 -5 -27 -9 -35 -7 -8 1 -30 0 -49 -4 -19 -3 -111 -14 -205 -23 -93 -10
-172 -20 -175 -23 -3 -4 -27 -12 -55 -19 -27 -7 -71 -26 -98 -43 -26 -16 -49
-29 -52 -29 -17 0 -52 -44 -48 -60 5 -18 68 -50 97 -50 7 0 21 -9 31 -20 10
-11 42 -31 71 -45 29 -14 56 -30 59 -35 3 -6 15 -10 27 -10 11 0 31 -9 45 -20
14 -11 34 -20 44 -20 11 0 19 -7 19 -16 0 -8 4 -13 9 -10 5 4 11 3 13 -2 5
-12 155 -122 167 -122 5 0 16 -9 24 -20 8 -11 17 -17 20 -13 4 3 7 2 7 -3 0
-5 17 -18 38 -29 20 -11 39 -23 42 -26 7 -9 127 -72 170 -89 19 -8 41 -20 48
-27 7 -7 32 -18 55 -24 23 -6 49 -17 57 -24 8 -7 39 -20 68 -30 28 -9 52 -21
52 -26 0 -13 -21 -48 -47 -77 -13 -14 -23 -31 -23 -38 0 -7 -9 -18 -20 -24
-11 -6 -20 -16 -20 -23 0 -7 -29 -41 -64 -76 l-64 -63 -21 21 c-12 12 -21 19
-21 16 0 -5 -26 15 -60 45 -20 18 -49 38 -70 47 -8 4 -21 15 -28 25 -7 10 -19
18 -27 18 -8 0 -19 9 -25 20 -6 11 -15 20 -21 20 -11 0 -77 48 -143 103 -19
15 -37 27 -41 27 -8 0 -13 4 -68 54 -15 14 -31 26 -34 26 -5 0 -33 23 -121
101 -19 16 -38 29 -43 29 -6 0 -41 25 -79 55 -38 30 -74 55 -80 55 -6 0 -13 7
-16 15 -4 8 -12 15 -18 15 -7 0 -27 16 -45 35 -17 19 -35 35 -39 35 -4 0 -23
16 -42 35 -19 19 -38 35 -42 35 -4 0 -20 12 -35 26 -55 50 -60 54 -70 54 -5 0
-20 14 -33 30 -13 17 -27 30 -33 30 -8 0 -130 91 -179 135 -10 8 -21 15 -24
15 -8 0 -98 73 -102 83 -2 4 -7 7 -12 7 -4 0 -28 19 -53 43 -73 69 -90 82
-129 101 -21 9 -50 28 -64 41 -15 14 -32 25 -37 25 -10 0 -15 4 -70 54 -15 14
-32 26 -37 26 -5 0 -28 15 -53 34 -24 19 -54 39 -66 45 -11 7 -21 18 -21 26 0
8 -5 15 -11 15 -7 0 -34 16 -60 35 -27 19 -54 35 -59 35 -6 0 -10 5 -10 10 0
6 -11 15 -25 20 -14 5 -28 16 -31 25 -3 8 -10 12 -15 9 -5 -3 -9 -1 -9 4 0 5
-18 17 -40 27 -22 10 -40 22 -40 27 0 5 -11 13 -25 18 -14 5 -28 16 -31 25 -3
8 -11 12 -16 9 -5 -4 -26 9 -46 29 -21 19 -52 42 -69 51 -18 9 -33 21 -33 27
0 6 -5 7 -10 4 -5 -3 -10 -2 -10 3 0 4 -15 16 -33 26 -17 9 -52 29 -77 44 -25
15 -60 36 -78 47 -19 11 -49 32 -68 46 -19 15 -50 30 -69 33 -19 4 -35 11 -35
16 0 4 -23 16 -50 25 -28 9 -56 22 -63 29 -6 7 -33 22 -59 35 -27 12 -48 27
-48 32 0 4 -19 13 -42 20 -24 6 -46 16 -50 23 -5 7 -53 11 -150 11 -114 -1
-148 -4 -168 -17 -14 -9 -44 -19 -67 -23 -22 -3 -49 -15 -59 -26 -9 -10 -25
-19 -34 -19 -9 0 -31 -15 -48 -34 -17 -19 -37 -38 -44 -43 -21 -13 -48 -114
-48 -181 0 -33 -4 -63 -8 -66 -23 -14 15 -154 53 -193 7 -6 18 -25 25 -42 7
-17 17 -31 22 -31 5 0 7 -4 4 -8 -2 -4 4 -27 15 -51 10 -24 19 -48 19 -53 0
-5 9 -21 20 -35 11 -14 20 -34 20 -44 0 -10 9 -24 20 -31 11 -7 20 -20 20 -28
0 -8 7 -24 15 -34 8 -11 15 -28 15 -38 0 -10 6 -21 14 -24 8 -3 16 -18 19 -33
3 -16 13 -35 21 -44 8 -8 12 -17 9 -21 -4 -3 -1 -6 5 -6 7 0 12 -5 12 -12 0
-19 41 -98 51 -98 5 0 9 -7 9 -16 0 -9 16 -35 35 -58 19 -24 35 -50 35 -59 0
-9 6 -20 13 -24 6 -4 21 -26 32 -48 11 -22 23 -42 27 -45 4 -3 16 -26 28 -50
39 -81 66 -132 76 -138 5 -4 18 -24 29 -44 11 -21 23 -38 26 -38 4 0 12 -12
18 -27 13 -34 29 -59 59 -92 12 -14 22 -32 22 -39 0 -7 7 -15 15 -18 8 -4 15
-11 15 -18 0 -6 17 -32 38 -58 62 -78 72 -92 72 -103 0 -5 16 -30 35 -54 19
-24 35 -50 35 -57 0 -7 9 -18 20 -24 11 -6 20 -15 20 -20 0 -20 76 -129 98
-139 12 -6 25 -18 29 -26 10 -29 62 -73 98 -85 22 -7 79 -11 144 -9 l109 4 40
-35 c22 -19 52 -43 66 -53 14 -10 26 -27 26 -37 0 -11 4 -20 8 -20 5 0 9 -6 9
-12 0 -7 8 -75 18 -150 19 -145 16 -168 -25 -168 -10 0 -20 -3 -22 -7 -6 -14
-76 -63 -90 -63 -7 0 -31 -19 -54 -43 -36 -38 -78 -73 -178 -150 -16 -12 -38
-32 -49 -44 -11 -13 -25 -23 -30 -23 -13 0 -137 -124 -137 -137 0 -6 -11 -18
-25 -27 -14 -9 -25 -22 -25 -28 0 -6 -10 -25 -23 -42 -13 -17 -43 -71 -67
-121 -24 -49 -47 -92 -51 -95 -4 -3 -14 -27 -23 -55 -10 -27 -24 -60 -32 -72
-8 -12 -14 -27 -14 -32 0 -5 -13 -38 -29 -73 -39 -86 -51 -125 -51 -164 0 -19
-4 -34 -10 -34 -6 0 -10 -105 -10 -295 0 -190 4 -295 10 -295 6 0 10 -29 10
-67 0 -89 27 -220 51 -244 11 -11 19 -24 19 -29 0 -12 41 -73 52 -78 5 -2 8
-15 8 -28 0 -14 6 -27 14 -30 8 -3 18 -18 21 -33 3 -16 14 -37 24 -48 11 -11
26 -34 35 -52 10 -18 24 -35 32 -38 7 -3 14 -9 14 -14 0 -5 9 -19 19 -31 11
-13 29 -34 40 -47 12 -13 21 -30 21 -38 0 -7 7 -13 15 -13 8 0 15 -8 15 -18 0
-10 6 -27 14 -38 11 -15 14 -51 13 -142 -2 -101 1 -123 14 -134 9 -7 19 -25
23 -40 3 -15 13 -34 22 -42 8 -9 13 -16 10 -16 -3 0 8 -13 26 -30 17 -16 28
-30 24 -30 -3 0 3 -9 14 -20 11 -11 24 -20 29 -20 5 0 27 -8 50 -19 l42 -18
-38 -36 c-21 -20 -54 -49 -73 -65 -19 -17 -54 -46 -76 -66 -23 -20 -46 -36
-52 -36 -5 0 -17 -11 -26 -25 -9 -14 -22 -25 -29 -25 -7 0 -34 -22 -59 -50
-25 -27 -49 -50 -54 -50 -4 0 -19 -11 -33 -24 -14 -13 -60 -54 -101 -91 -41
-36 -84 -75 -95 -86 -12 -10 -26 -19 -33 -19 -7 0 -12 -7 -12 -17 0 -9 -3 -14
-6 -10 -3 3 -64 -52 -135 -121 -71 -70 -171 -166 -221 -213 -51 -47 -128 -119
-170 -159 -43 -41 -82 -77 -88 -80 -5 -3 -11 -19 -12 -36 -2 -30 -33 -74 -52
-74 -6 0 -17 -9 -24 -20 -7 -11 -19 -20 -27 -20 -8 0 -22 -12 -32 -27 -21 -33
-384 -403 -396 -403 -5 0 -55 -47 -112 -104 -57 -57 -110 -106 -117 -109 -7
-3 2 -6 21 -6 29 -1 44 10 115 81 46 46 92 90 103 98 35 27 58 40 75 46 10 4
18 11 18 18 0 6 32 43 70 81 39 39 70 76 70 83 0 6 6 12 13 12 7 0 68 56 137
125 69 69 130 125 137 125 6 0 13 6 16 13 5 14 57 -37 57 -57 0 -7 16 -33 35
-57 19 -24 35 -48 35 -53 0 -11 6 -18 93 -108 41 -42 82 -74 109 -85 24 -9 45
-20 48 -24 3 -4 17 -12 32 -18 20 -8 28 -19 33 -52 6 -36 4 -44 -18 -65 -15
-13 -29 -24 -32 -24 -3 0 -37 -32 -76 -70 -66 -64 -69 -70 -45 -70 17 0 42 16
76 48 28 26 68 63 91 82 22 19 53 48 70 63 27 26 32 27 69 17 22 -6 40 -15 40
-20 0 -6 13 -10 29 -10 21 0 40 12 76 53 97 107 177 187 188 187 10 0 40 31
102 105 19 22 79 86 135 143 85 87 105 103 128 100 23 -3 27 -7 24 -31 -1 -15
-16 -51 -32 -81 -17 -31 -30 -69 -30 -89 0 -19 -8 -45 -18 -58 -10 -13 -23
-46 -30 -74 -7 -27 -17 -52 -23 -53 -5 -2 -7 -8 -4 -12 3 -5 1 -17 -4 -27 -6
-10 -20 -38 -31 -63 -27 -58 -56 -112 -68 -126 -6 -6 -18 -26 -27 -45 -10 -19
-25 -43 -35 -54 -30 -35 -32 -55 -7 -55 17 0 29 12 48 46 54 102 61 114 69
114 4 0 16 22 26 50 10 27 21 50 25 50 3 0 17 28 30 63 12 34 28 71 35 82 7
11 18 43 25 70 7 28 16 53 21 56 5 3 18 41 30 85 12 43 24 81 28 84 3 3 14 34
24 70 10 36 23 71 29 78 7 9 5 16 -8 26 -16 11 -10 20 69 98 78 79 104 118 75
118 -17 0 -49 -20 -49 -31 0 -5 -94 -104 -210 -219 -115 -115 -210 -213 -210
-216 0 -4 -89 -96 -198 -205 -182 -182 -200 -197 -218 -185 -10 7 -45 22 -76
32 -32 10 -58 21 -58 26 0 4 -6 8 -14 8 -15 0 -108 39 -116 49 -3 3 -23 15
-45 26 -83 42 -158 139 -263 339 -25 49 -19 76 29 118 24 21 67 61 96 88 29
28 56 50 60 50 5 0 31 25 58 55 28 30 54 55 59 55 5 0 32 22 60 49 28 27 83
77 121 111 39 34 95 86 126 116 31 30 59 54 63 54 4 0 29 23 56 50 27 28 52
50 56 50 4 0 30 22 58 50 28 27 85 80 126 116 41 37 98 89 126 115 28 27 54
49 58 49 4 0 30 23 57 51 74 77 122 96 227 91 25 -2 32 -6 32 -23 0 -12 13
-38 30 -59 16 -21 30 -42 30 -47 0 -4 9 -14 20 -21 11 -7 20 -17 20 -23 0 -14
175 -189 189 -189 6 0 16 -9 23 -20 7 -11 17 -20 22 -20 5 0 23 -11 40 -24 42
-32 170 -90 231 -105 27 -7 55 -17 61 -22 6 -5 62 -16 125 -25 63 -9 116 -20
119 -24 3 -4 75 -10 160 -13 206 -9 221 -12 248 -50 12 -18 32 -45 46 -60 13
-15 30 -48 37 -72 7 -25 17 -45 20 -45 4 0 15 -24 25 -52 9 -29 22 -56 28 -60
8 -6 6 -11 -4 -18 -12 -8 -15 -39 -15 -176 0 -125 3 -168 13 -171 6 -3 12 -11
12 -19 0 -36 28 -100 56 -130 21 -23 43 -35 72 -40 23 -4 42 -10 42 -15 0 -5
22 -9 49 -9 74 0 77 -7 63 -162 -7 -73 -15 -134 -20 -137 -9 -7 -44 -142 -38
-148 3 -3 13 -2 23 1 14 4 24 26 36 79 9 41 17 85 17 100 0 15 3 27 8 27 4 0
5 23 3 51 -2 29 2 56 8 62 6 6 11 35 11 64 l0 54 63 -3 c61 -3 62 -4 65 -33 2
-16 8 -36 14 -42 6 -7 8 -20 4 -28 -3 -8 -2 -15 2 -15 8 0 42 -106 42 -133 0
-9 4 -17 8 -17 7 0 21 -45 38 -125 6 -27 15 -41 28 -43 16 -3 18 0 12 30 -4
18 -10 51 -13 72 -3 22 -12 46 -19 54 -8 7 -14 20 -14 28 0 14 13 17 90 15 25
-1 61 3 80 9 19 6 59 15 89 20 30 5 58 14 61 21 4 6 26 13 49 16 23 3 47 13
54 23 27 39 107 36 107 -4 0 -38 34 -171 46 -178 6 -4 15 -19 18 -33 4 -14 13
-25 20 -25 8 0 17 -11 20 -25 4 -16 13 -25 26 -25 21 0 26 10 11 26 -4 5 -16
40 -25 79 -10 38 -22 75 -28 82 -5 7 -7 17 -3 23 3 5 2 10 -3 10 -5 0 -13 19
-16 43 -4 23 -13 55 -21 71 -8 15 -13 32 -10 36 3 5 2 10 -3 12 -13 5 -50 166
-41 180 5 7 9 9 9 3 0 -6 3 -5 8 1 4 6 31 19 60 28 28 10 52 22 52 27 0 5 7 9
15 9 25 0 113 52 167 97 27 24 54 43 59 43 5 0 9 5 9 10 0 6 12 23 26 38 14
15 31 42 39 60 8 17 18 32 22 32 5 0 7 16 5 35 -3 21 0 35 7 35 12 0 16 142 4
153 -4 4 -14 29 -23 55 -10 29 -25 51 -38 57 -12 5 -22 13 -22 18 0 4 -4 5
-10 2 -5 -3 -10 -2 -10 3 0 6 -34 18 -75 27 l-75 16 0 105 c0 58 5 148 11 202
12 107 18 382 8 382 -4 0 -9 89 -13 198 -4 108 -9 205 -12 214 -4 12 2 19 20
24 14 3 26 10 26 16 0 5 5 6 10 3 6 -3 10 -1 10 4 0 6 6 11 14 11 26 0 106
124 106 164 0 7 7 28 16 45 13 27 16 56 12 154 -3 81 -8 122 -16 125 -7 2 -12
10 -12 19 0 17 -31 76 -43 81 -4 2 -5 8 -1 13 3 5 0 9 -5 9 -6 0 -11 5 -11 11
0 7 -11 22 -24 34 -20 18 -24 34 -30 116 -7 98 -21 179 -39 216 -5 12 -7 29
-4 37 3 8 2 18 -2 21 -5 2 -14 35 -21 72 -7 38 -16 73 -20 78 -5 6 -11 28 -15
50 -8 48 -35 115 -47 115 -4 0 -8 10 -8 23 0 26 -31 118 -46 139 -26 33 -62
107 -73 148 -15 56 -11 222 6 227 12 4 51 -34 163 -158 123 -138 212 -234 266
-289 30 -30 54 -58 54 -62 0 -4 25 -32 55 -62 30 -30 55 -59 55 -65 0 -6 7
-11 15 -11 8 0 15 -5 15 -12 0 -6 25 -36 55 -65 30 -29 55 -56 55 -60 0 -4 10
-17 21 -29 21 -23 32 -89 55 -351 4 -40 11 -73 15 -73 5 0 9 -12 9 -27 0 -56
32 -339 41 -358 5 -11 9 -29 8 -40 0 -39 45 -390 51 -395 4 -3 15 -77 24 -165
10 -87 22 -166 27 -175 4 -8 15 -69 24 -135 9 -66 20 -129 25 -140 5 -11 19
-78 31 -150 12 -71 25 -132 28 -135 4 -3 15 -43 25 -90 10 -47 22 -91 28 -97
6 -7 8 -20 4 -28 -3 -8 -2 -15 3 -15 4 0 14 -26 21 -57 7 -32 17 -63 23 -70 5
-7 6 -17 2 -23 -3 -5 -2 -10 3 -10 5 0 15 -28 21 -62 7 -35 21 -81 32 -104 10
-23 19 -51 19 -62 0 -21 19 -73 31 -82 3 -3 9 -18 12 -35 13 -67 37 -149 46
-158 6 -6 11 -24 11 -40 0 -27 28 -87 40 -87 11 0 10 -45 -3 -70 -6 -14 -37
-58 -67 -99 -30 -40 -59 -81 -65 -90 -5 -8 -18 -22 -27 -29 -10 -7 -18 -19
-18 -26 0 -7 -11 -19 -25 -26 -33 -18 -34 -50 -1 -50 27 0 86 52 86 76 0 8 5
14 11 14 5 0 7 5 4 10 -3 5 -1 10 5 10 6 0 15 11 20 25 5 14 17 28 25 31 8 4
15 11 15 16 0 5 16 28 35 51 19 22 35 48 35 57 0 8 12 27 28 41 15 14 34 34
42 45 8 11 34 45 58 75 23 31 42 61 42 67 0 6 9 16 20 22 11 6 20 16 20 24 0
7 16 30 35 52 19 21 35 46 35 54 0 8 8 20 18 26 10 7 24 31 32 55 8 24 20 48
27 52 7 4 13 14 13 21 0 7 11 25 24 39 14 15 33 41 43 59 10 18 24 37 31 41 6
4 12 13 12 19 0 6 12 25 28 44 50 61 102 132 102 141 0 4 9 14 20 21 11 7 20
17 20 23 0 6 27 46 60 88 33 43 60 81 60 86 0 5 7 15 15 24 9 9 34 41 55 71
22 30 44 61 50 67 6 7 20 28 31 48 12 19 25 35 30 35 5 0 9 6 9 13 0 6 16 32
35 55 19 24 37 52 40 63 4 10 11 19 16 19 5 0 13 10 18 23 5 12 25 42 45 67
20 25 36 50 36 56 0 7 7 14 15 18 8 3 15 11 15 17 0 6 16 33 35 59 19 26 35
53 35 59 0 6 4 11 10 11 5 0 19 18 30 40 11 22 24 40 28 40 4 0 16 18 26 40
11 22 24 40 29 40 6 0 8 3 4 6 -3 3 3 15 14 27 36 41 44 52 64 90 11 20 23 37
28 37 4 0 6 4 3 9 -3 5 1 11 9 15 8 3 15 10 15 16 0 5 16 32 35 59 19 26 35
53 35 59 0 5 7 12 15 16 8 3 15 11 15 17 0 6 23 43 51 81 48 67 50 71 33 89
-16 18 -17 18 -40 -4 -13 -12 -24 -27 -24 -33 0 -6 -10 -22 -22 -36 -13 -14
-31 -40 -42 -58 -10 -18 -26 -40 -35 -50 -9 -9 -21 -25 -26 -34 -9 -16 -13
-15 -45 16 l-35 34 31 59 c18 33 40 76 50 95 10 19 29 50 41 69 13 19 23 42
23 53 0 10 7 21 15 24 8 4 15 13 15 21 0 16 25 64 53 102 9 13 17 36 17 50 0
15 7 37 16 49 14 21 14 24 -5 48 -12 15 -21 33 -21 40 0 8 -4 14 -9 14 -5 0
-19 21 -32 47 -12 25 -31 55 -41 65 -10 10 -18 27 -18 38 0 11 -4 20 -8 20 -5
0 -20 21 -33 48 -13 26 -27 49 -32 50 -4 2 -4 8 -1 14 3 5 -3 18 -15 29 -12
11 -21 23 -21 28 0 4 -9 18 -20 31 -11 13 -20 29 -20 36 0 7 -9 15 -19 19 -12
3 -18 12 -15 20 5 11 -22 35 -40 35 -16 0 19 -93 41 -109 5 -3 17 -24 28 -45
11 -22 28 -48 38 -58 9 -10 17 -23 17 -29 0 -6 13 -29 29 -52 15 -23 31 -52
35 -64 4 -13 11 -23 15 -23 4 0 16 -18 26 -40 10 -22 22 -40 27 -40 4 0 8 -6
8 -12 0 -7 12 -35 25 -63 13 -27 21 -52 16 -55 -4 -3 -16 -26 -27 -52 -10 -27
-22 -48 -25 -48 -4 0 -15 -22 -25 -50 -10 -27 -21 -50 -25 -50 -4 0 -15 -22
-25 -50 -10 -27 -22 -50 -27 -50 -4 0 -5 -4 -2 -10 3 -5 2 -10 -2 -10 -5 0
-17 -22 -28 -50 -11 -28 -23 -50 -26 -50 -4 0 -13 -15 -19 -34 -6 -19 -17 -37
-25 -40 -23 -9 -18 -19 31 -69 53 -54 54 -72 4 -128 -16 -19 -30 -39 -30 -46
0 -7 -6 -16 -12 -20 -7 -4 -22 -24 -32 -43 -11 -19 -28 -44 -38 -54 -10 -11
-18 -25 -18 -32 0 -7 -8 -19 -18 -26 -11 -7 -21 -20 -24 -28 -9 -25 -29 38
-30 97 -1 29 -5 53 -9 53 -8 0 -16 48 -29 200 -6 63 -16 124 -22 134 -5 11
-14 69 -19 130 -5 61 -15 136 -21 166 -6 30 -11 73 -11 95 1 22 -3 45 -7 50
-4 6 -15 123 -24 260 -10 138 -23 261 -29 274 -10 19 -9 25 2 29 7 2 22 13 32
23 10 10 34 21 54 25 20 3 39 13 42 20 3 8 9 11 14 8 5 -3 9 0 9 5 0 6 6 11
13 11 21 0 81 31 90 47 4 7 16 13 25 13 9 0 32 10 51 23 19 12 42 27 52 32 30
19 139 130 139 142 0 7 9 17 20 23 11 6 20 16 20 23 0 7 13 28 29 47 15 19 32
46 36 60 4 14 13 32 20 40 17 21 45 96 45 120 0 24 35 28 44 5 3 -8 11 -15 18
-15 7 0 19 -9 26 -20 7 -11 17 -20 22 -20 6 0 18 -8 28 -18 11 -9 45 -41 78
-70 130 -117 192 -182 211 -220 3 -8 17 -26 30 -40 13 -15 31 -34 39 -43 8 -9
14 -20 14 -25 0 -5 10 -20 23 -34 12 -14 44 -54 70 -90 26 -36 56 -74 66 -85
11 -11 23 -37 26 -57 4 -21 11 -38 17 -38 5 0 6 -4 3 -10 -3 -5 -2 -10 3 -10
5 0 15 -28 22 -63 7 -34 15 -66 19 -72 3 -5 4 -24 2 -42 -1 -19 2 -33 8 -33
18 0 14 -195 -4 -210 -10 -8 -15 -31 -15 -70 0 -52 -8 -92 -30 -145 -4 -11
-18 -47 -31 -80 -12 -33 -26 -62 -29 -65 -3 -3 -28 -49 -54 -104 -26 -54 -52
-104 -57 -110 -13 -14 -37 -59 -100 -181 -28 -55 -55 -101 -60 -103 -5 -2 -9
-9 -9 -16 0 -7 -16 -33 -35 -57 -19 -24 -35 -50 -35 -56 0 -7 -9 -18 -20 -25
-11 -7 -20 -17 -20 -22 0 -5 -18 -33 -40 -62 -22 -29 -40 -58 -40 -64 0 -5 -5
-10 -10 -10 -6 0 -14 -8 -18 -19 -4 -10 -17 -31 -29 -47 -13 -16 -39 -49 -58
-74 -19 -25 -35 -51 -35 -57 0 -7 -9 -18 -20 -25 -11 -7 -20 -17 -20 -23 0 -5
-18 -32 -40 -60 -22 -27 -40 -55 -40 -62 0 -7 -9 -17 -20 -23 -11 -6 -20 -16
-20 -22 0 -6 -27 -46 -60 -89 -33 -42 -60 -82 -60 -88 0 -7 -7 -14 -15 -17 -8
-4 -15 -10 -15 -15 0 -6 -18 -34 -40 -63 -22 -29 -40 -58 -40 -64 0 -6 -9 -16
-20 -22 -11 -6 -20 -16 -20 -23 0 -10 -39 -65 -80 -115 -6 -6 -7 -12 -3 -12 4
0 -3 -7 -15 -16 -12 -8 -22 -21 -22 -29 0 -8 -6 -18 -12 -22 -13 -8 -32 -34
-44 -61 -4 -7 -15 -23 -25 -35 -56 -66 -69 -83 -69 -94 0 -6 -8 -18 -18 -25
-9 -7 -26 -30 -37 -51 -11 -20 -23 -37 -27 -37 -4 0 -17 -18 -28 -40 -11 -22
-24 -40 -28 -40 -4 0 -16 -17 -27 -37 -11 -21 -27 -45 -35 -54 -30 -32 -49
-59 -65 -89 -9 -17 -23 -34 -31 -37 -7 -3 -14 -10 -14 -15 0 -6 -13 -26 -30
-45 -16 -18 -30 -40 -30 -48 0 -7 -11 -22 -25 -33 -14 -11 -25 -24 -25 -28 0
-5 -16 -29 -35 -53 -19 -24 -35 -49 -35 -56 0 -6 -17 -27 -37 -46 l-38 -34 69
-3 c90 -4 106 2 78 29 -31 28 -27 55 13 102 19 22 35 45 35 51 0 6 9 17 20 24
11 7 20 18 20 25 0 7 23 37 50 67 28 30 50 56 50 58 0 2 16 22 35 45 19 22 35
47 35 54 0 7 9 18 20 25 11 7 20 19 20 26 0 8 16 33 35 56 19 24 35 48 35 55
0 6 6 11 14 11 8 0 18 12 24 28 5 15 33 52 61 82 28 30 57 67 64 82 6 16 16
28 20 28 5 0 5 5 2 10 -3 6 1 10 9 10 9 0 16 7 16 15 0 8 9 20 20 27 11 7 20
17 20 21 0 11 70 102 102 135 30 29 38 28 38 -8 0 -16 4 -30 9 -30 4 0 13 -42
20 -93 7 -50 17 -128 22 -172 6 -44 14 -84 19 -90 4 -5 10 -37 13 -70 7 -86
28 -218 37 -230 4 -5 13 -41 20 -80 7 -38 18 -74 25 -80 6 -5 14 -37 17 -70 3
-33 11 -79 18 -103 12 -37 17 -42 42 -42 31 0 47 22 30 43 -5 6 -15 44 -22 82
-7 39 -17 75 -21 81 -5 6 -6 14 -2 17 3 4 1 12 -4 19 -5 7 -18 56 -28 108 -9
52 -21 100 -26 105 -4 6 -17 65 -29 130 -11 66 -24 127 -29 135 -4 8 -16 69
-25 135 -10 66 -21 128 -27 137 -13 25 -28 143 -22 170 3 13 23 44 45 70 22
27 36 52 33 58 -3 5 1 10 9 10 9 0 16 7 16 15 0 8 9 24 19 34 10 10 22 27 25
38 3 10 19 33 36 51 16 18 30 39 30 47 0 8 8 20 18 27 9 7 26 29 36 48 22 39
36 51 49 43 10 -6 -2 -523 -13 -538 -12 -16 -14 -75 -15 -315 0 -259 3 -293
28 -298 16 -3 17 10 17 157 0 88 4 162 9 166 6 3 9 125 9 290 -1 157 2 288 6
292 3 3 6 84 6 178 0 141 3 175 15 185 8 7 15 17 15 22 0 6 11 19 25 30 14 11
25 26 25 34 0 8 4 14 10 14 5 0 19 18 30 40 11 22 24 40 28 40 9 0 65 90 133
215 12 22 25 42 28 45 4 3 15 25 26 50 10 25 25 50 33 57 15 13 34 42 51 81 6
12 13 22 15 22 3 0 10 -34 17 -75 6 -41 15 -75 19 -75 4 0 15 -47 25 -105 10
-58 22 -108 27 -111 4 -3 5 -10 2 -16 -4 -5 -2 -20 4 -31 13 -27 42 -161 42
-193 0 -13 4 -24 8 -24 5 0 19 -54 32 -120 14 -66 27 -120 31 -120 3 0 12 -34
20 -75 7 -41 17 -75 22 -75 4 0 5 -5 2 -10 -4 -6 -3 -16 2 -23 5 -7 18 -50 28
-97 10 -47 22 -87 25 -90 7 -5 8 -10 33 -118 8 -35 20 -69 26 -75 6 -6 11 -19
11 -29 0 -24 27 -106 49 -148 10 -19 21 -51 25 -72 4 -20 13 -39 21 -42 8 -3
15 -13 15 -22 0 -18 26 -101 47 -151 7 -17 16 -46 20 -63 3 -17 12 -34 19 -37
8 -3 14 -15 14 -28 0 -31 31 -125 41 -125 5 0 6 -6 3 -13 -3 -8 2 -19 10 -26
9 -7 18 -29 22 -48 4 -19 13 -37 20 -40 8 -3 14 -12 14 -20 0 -8 8 -28 17 -44
13 -22 25 -29 49 -29 l33 0 -25 62 c-13 34 -24 68 -24 75 0 7 -4 13 -9 13 -5
0 -16 24 -25 53 -9 28 -23 66 -31 82 -39 84 -73 165 -85 205 -8 25 -17 47 -21
50 -3 3 -14 30 -24 60 -10 30 -24 64 -30 75 -7 11 -18 41 -25 67 -7 27 -16 48
-20 48 -4 0 -17 34 -29 75 -13 41 -26 77 -31 80 -4 3 -14 29 -20 57 -7 29 -20
71 -30 93 -10 22 -26 74 -36 115 -10 41 -21 77 -25 80 -6 5 -24 87 -35 160 -3
25 -10 47 -15 50 -4 3 -13 39 -19 80 -7 41 -18 85 -27 98 -8 13 -12 30 -9 38
3 8 2 14 -3 14 -5 0 -11 15 -14 33 -15 97 -29 162 -36 167 -5 3 -16 46 -26 95
-10 50 -22 96 -28 103 -5 7 -7 15 -4 18 3 3 -1 23 -8 45 -8 21 -17 67 -21 101
-3 35 -12 76 -20 92 -8 16 -14 33 -14 39 0 17 71 155 86 167 8 7 14 18 14 26
0 7 6 19 13 26 16 17 57 105 57 122 0 7 7 19 15 26 8 7 15 23 15 35 0 12 9 33
19 47 14 17 25 60 36 144 9 65 21 127 26 136 11 22 12 178 1 178 -4 0 -16 47
-26 105 -11 58 -23 105 -28 105 -5 0 -6 5 -3 10 3 6 2 10 -2 10 -5 0 -14 20
-21 45 -7 25 -17 45 -23 45 -5 0 -7 5 -4 10 3 6 1 10 -4 10 -6 0 -11 5 -11 12
0 14 -78 117 -107 141 -13 10 -23 25 -23 33 0 8 -7 17 -15 20 -8 4 -15 12 -15
19 0 7 -13 29 -29 49 -65 82 -284 316 -296 316 -3 0 -26 16 -49 35 -24 19 -46
35 -50 35 -3 0 -14 8 -25 19 -10 10 -25 21 -32 23 -17 6 -19 90 -2 95 7 3 10
10 7 18 -3 7 -1 16 5 20 6 3 11 19 11 36 0 23 4 29 20 29 28 0 70 23 99 54 14
14 32 26 42 26 10 0 21 5 24 11 4 6 28 9 54 8 25 -1 75 4 110 11 l63 13 -6 40
c-4 23 -16 57 -26 76 -11 20 -29 62 -39 93 -23 67 -22 68 75 68 35 0 64 4 64
8 0 5 43 9 97 10 61 1 99 5 103 13 11 17 0 47 -24 62 -11 8 -55 48 -98 88 -42
41 -107 104 -145 140 l-70 65 -6 77 c-7 77 -3 107 14 107 5 0 32 16 60 35 28
19 57 35 65 35 7 0 19 8 26 18 19 26 224 142 252 142 7 0 24 8 37 18 13 10 52
25 86 32 47 9 66 19 78 37 14 20 14 27 3 40 -13 16 -71 56 -117 80 -13 7 -51
35 -85 61 -33 27 -69 51 -78 55 -10 3 -18 13 -18 22 0 8 -6 15 -12 15 -16 1
-108 93 -108 108 0 6 -9 16 -20 22 -11 6 -20 17 -20 25 0 8 -8 20 -17 27 -10
7 -27 29 -37 48 -11 19 -25 39 -33 43 -18 11 -17 53 2 61 8 3 15 14 15 24 0
11 7 25 15 32 8 7 15 19 15 26 0 8 5 14 11 14 5 0 16 15 24 33 7 17 27 49 44
71 17 21 31 42 31 47 0 19 123 123 164 139 15 5 26 14 26 19 0 5 10 13 23 17
25 8 87 50 131 88 16 14 33 26 38 26 5 0 7 3 5 8 -3 4 1 13 9 20 8 7 14 11 14
8 0 -3 17 11 38 29 20 19 42 35 49 35 20 0 26 40 8 60 -12 13 -39 20 -108 26
-51 4 -95 7 -99 6 -5 -1 -8 2 -8 7 0 5 -30 15 -66 22 -37 7 -72 18 -78 24 -6
6 -31 19 -56 30 -25 11 -49 25 -53 32 -4 7 -13 13 -19 13 -6 0 -35 18 -64 40
-29 22 -58 40 -64 40 -5 0 -10 4 -10 8 0 4 -29 27 -65 50 -36 24 -65 50 -65
58 0 8 -5 14 -10 14 -6 0 -2 10 9 21 11 12 23 38 26 59 4 21 12 41 20 44 7 2
16 18 20 35 4 17 11 33 16 36 5 4 9 15 9 26 0 10 4 19 9 19 4 0 16 25 26 55 9
30 21 55 25 55 5 0 14 17 20 38 15 49 30 82 52 111 10 13 18 34 18 46 0 12 9
32 20 45 11 13 20 33 20 46 0 13 5 26 10 29 6 3 10 15 10 26 0 10 5 19 11 19
5 0 7 5 4 10 -3 6 3 22 14 36 12 15 21 35 21 45 0 11 5 19 11 19 5 0 7 5 4 10
-3 6 -3 10 2 10 4 0 17 20 28 45 11 25 23 45 28 45 4 0 10 8 14 18 6 15 100
142 137 184 8 9 12 19 8 22 -3 3 0 6 6 6 18 0 14 27 -4 34 -22 8 -96 -4 -114
-19 -8 -7 -42 -20 -75 -29 -33 -10 -67 -22 -76 -26 -22 -11 -173 -40 -210 -40
-16 0 -29 -5 -29 -11 0 -6 -15 -10 -32 -8 -18 1 -40 -1 -48 -4 -8 -3 -82 -11
-165 -18 -82 -6 -154 -15 -160 -19 -5 -4 -32 -10 -60 -14 -27 -4 -62 -12 -77
-18 -49 -19 -55 -9 -45 73 5 41 8 85 8 98 -1 13 3 29 8 35 5 6 14 76 21 156 6
80 14 152 17 160 3 8 5 36 5 62 -1 26 3 50 8 53 14 8 13 402 0 410 -6 4 -10
12 -8 18 3 16 -32 169 -42 182 -4 6 -10 28 -14 50 -10 57 -39 139 -52 147 -7
4 -15 20 -19 35 -3 16 -13 35 -21 44 -8 9 -14 20 -13 25 1 5 -1 17 -4 27 -4 9
-9 24 -12 32 -2 8 -16 15 -31 15 -19 0 -28 -7 -37 -30 -6 -16 -14 -30 -18 -30
-4 0 -17 -27 -29 -60 -12 -33 -26 -60 -29 -60 -4 0 -15 -22 -25 -50 -10 -27
-21 -50 -25 -50 -4 0 -15 -22 -26 -50 -11 -27 -25 -52 -32 -54 -7 -3 -13 -12
-13 -20 0 -8 -15 -32 -32 -54 -67 -81 -93 -115 -100 -133 -4 -11 -11 -19 -15
-19 -5 0 -17 -17 -28 -37 -11 -21 -27 -45 -35 -54 -8 -9 -27 -31 -42 -50 -35
-43 -147 -163 -327 -347 l-139 -144 -28 37 c-16 20 -53 60 -81 88 -29 29 -53
56 -53 61 0 5 -10 19 -22 31 -24 23 -44 47 -106 123 -20 26 -49 57 -64 70 -16
13 -28 30 -28 37 0 7 -11 16 -25 19 -14 4 -25 11 -25 16 0 6 -4 10 -9 10 -9 0
-56 43 -183 166 -43 40 -81 74 -85 74 -4 0 -25 18 -47 39 -23 22 -81 74 -131
115 -49 42 -102 87 -117 101 -15 14 -31 25 -36 25 -5 0 -21 12 -35 28 -27 27
-39 37 -127 107 -25 20 -57 47 -71 60 -14 14 -31 25 -37 25 -7 0 -17 9 -24 20
-7 11 -17 20 -21 20 -5 0 -28 16 -51 35 -35 28 -51 35 -87 35 -24 0 -39 -4
-33 -8z m159 -133 c11 -10 40 -34 65 -54 25 -19 54 -44 65 -55 12 -11 26 -20
32 -20 7 0 17 -9 23 -20 6 -11 24 -27 40 -35 17 -9 30 -22 30 -31 0 -8 7 -17
15 -20 8 -4 15 -12 15 -20 0 -8 5 -14 10 -14 6 0 10 5 10 11 0 8 5 7 15 -1 13
-11 13 -15 3 -21 -10 -7 -10 -9 0 -9 6 0 22 -11 34 -25 12 -14 27 -25 34 -25
7 0 29 -16 48 -35 20 -19 42 -35 49 -35 7 0 18 -9 25 -20 7 -11 17 -20 24 -20
14 0 22 -8 300 -281 126 -123 228 -227 228 -232 0 -4 45 -52 100 -107 55 -54
100 -102 100 -105 0 -4 20 -27 45 -52 38 -39 48 -44 72 -38 26 6 153 128 153
147 0 5 11 13 25 18 14 5 30 21 37 35 6 13 19 27 30 30 10 4 18 11 18 16 0 5
24 34 53 65 28 30 73 78 99 107 25 28 71 80 101 113 30 34 63 75 73 90 10 16
27 35 36 42 10 7 18 19 18 27 0 8 6 18 13 22 8 4 17 15 20 23 9 21 31 54 39
60 8 7 52 83 79 140 12 25 28 49 35 53 8 4 14 17 14 27 0 11 5 20 10 20 6 0
10 7 10 15 0 8 9 23 20 32 11 10 20 27 20 38 0 41 12 63 36 68 17 3 24 0 24
-12 0 -9 8 -30 18 -46 11 -17 27 -55 37 -85 10 -30 21 -57 25 -60 10 -7 50
-168 50 -201 0 -15 6 -29 13 -31 16 -6 18 -455 1 -466 -14 -9 -42 -263 -48
-436 -3 -77 -10 -144 -16 -150 -18 -18 -12 -63 10 -69 21 -5 102 12 110 23 7
10 116 26 265 41 66 6 122 14 125 18 3 5 43 11 89 14 93 7 191 27 191 39 0 13
38 9 43 -4 3 -10 7 -10 19 0 9 7 45 20 80 29 34 9 65 19 68 23 3 4 15 10 28
14 35 11 28 -28 -13 -78 -19 -24 -35 -48 -35 -55 0 -6 -4 -11 -10 -11 -5 0
-17 -16 -26 -35 -9 -19 -20 -35 -25 -35 -4 0 -16 -17 -26 -37 -9 -21 -20 -40
-24 -43 -13 -10 -99 -185 -99 -202 0 -10 -4 -18 -8 -18 -9 0 -52 -98 -52 -118
0 -6 -4 -12 -8 -12 -4 0 -14 -17 -20 -37 -7 -21 -24 -60 -37 -88 -56 -120 -75
-163 -87 -202 -7 -24 -16 -43 -20 -43 -4 0 -15 -25 -23 -55 -9 -30 -21 -55
-26 -55 -5 0 -9 -4 -9 -9 0 -15 72 -80 107 -96 18 -9 33 -20 33 -26 0 -5 10
-13 23 -18 12 -5 49 -30 82 -56 33 -25 75 -53 93 -60 17 -8 32 -18 32 -23 0
-4 23 -16 50 -26 28 -10 50 -21 50 -25 0 -11 81 -30 156 -36 96 -9 111 -12
118 -32 7 -18 -25 -50 -79 -80 -16 -9 -36 -24 -43 -34 -7 -11 -20 -19 -28 -19
-8 0 -17 -7 -20 -15 -4 -8 -11 -15 -17 -15 -6 0 -32 -18 -58 -40 -26 -22 -50
-40 -54 -40 -3 0 -22 -15 -41 -34 -90 -85 -138 -139 -159 -179 -11 -20 -23
-37 -26 -37 -4 0 -16 -20 -28 -45 -12 -25 -25 -45 -29 -45 -5 0 -15 -18 -22
-39 -7 -22 -19 -42 -27 -46 -11 -4 -13 -13 -8 -32 4 -16 10 -30 13 -33 10 -7
92 -118 92 -124 0 -13 214 -236 226 -236 6 0 19 -8 30 -18 32 -29 117 -87 147
-100 42 -18 34 -54 -15 -66 -21 -5 -38 -13 -38 -18 0 -4 -6 -8 -14 -8 -20 0
-120 -33 -126 -41 -3 -4 -25 -15 -50 -25 -25 -10 -47 -21 -50 -25 -3 -4 -22
-16 -43 -28 -21 -12 -44 -26 -50 -31 -50 -42 -104 -80 -114 -80 -6 0 -18 -9
-26 -20 -17 -24 -23 -18 -57 50 -28 57 -74 106 -123 131 -65 34 -77 52 -77
119 0 33 4 60 10 60 6 0 10 50 10 130 0 80 -4 130 -10 130 -17 0 -11 57 9 92
10 18 22 49 26 68 4 19 13 38 19 42 14 9 15 286 1 296 -11 7 -32 73 -42 127
-3 17 -19 44 -37 60 -44 42 -53 66 -66 185 -6 58 -15 114 -20 125 -5 11 -16
72 -25 135 -9 63 -20 120 -25 125 -4 6 -17 43 -30 83 -12 39 -25 72 -29 72 -4
0 -14 20 -23 45 l-17 45 25 6 c65 16 72 168 12 254 -70 100 -175 203 -237 231
-28 13 -51 27 -51 31 0 4 -25 15 -55 23 -30 9 -55 20 -55 25 0 11 -93 40 -126
40 -12 0 -24 4 -26 9 -14 40 -901 42 -928 2 -3 -4 -38 -16 -77 -26 -40 -10
-73 -22 -73 -26 0 -4 -25 -15 -55 -24 -30 -8 -55 -19 -55 -24 0 -4 -12 -13
-26 -20 -14 -6 -42 -24 -62 -40 -20 -17 -50 -33 -65 -37 -16 -3 -34 -15 -40
-25 -7 -11 -15 -19 -20 -19 -4 0 -22 -13 -40 -30 -18 -16 -37 -30 -44 -30 -7
0 -16 -6 -20 -13 -4 -7 -21 -21 -36 -30 -50 -32 -79 -58 -189 -169 -60 -60
-108 -115 -108 -122 0 -8 -6 -21 -12 -28 -19 -19 -46 -81 -53 -122 -4 -20 -11
-36 -15 -36 -4 0 -13 -24 -20 -52 -7 -29 -18 -66 -25 -83 -8 -16 -23 -74 -35
-127 -12 -54 -26 -100 -31 -103 -11 -8 -12 -455 -1 -455 5 0 12 -179 16 -397
4 -219 11 -460 16 -537 10 -155 6 -170 -55 -196 -38 -17 -114 -96 -121 -127
-4 -13 -10 -23 -14 -23 -4 0 -15 -20 -24 -45 -14 -36 -17 -70 -14 -167 3 -120
4 -125 42 -201 21 -43 47 -82 57 -88 11 -5 19 -16 19 -23 0 -7 11 -18 25 -24
14 -6 25 -16 25 -22 0 -5 8 -10 19 -10 10 0 24 -6 30 -14 6 -7 29 -16 50 -20
21 -3 44 -12 50 -20 6 -7 27 -16 47 -19 48 -8 64 -23 64 -62 0 -19 4 -35 10
-37 5 -1 13 -31 16 -66 5 -45 11 -62 20 -58 12 5 22 -42 26 -134 3 -46 -22
-140 -43 -163 -9 -10 -31 -22 -50 -27 -35 -10 -89 -13 -89 -6 0 3 7 35 16 73
12 51 15 94 10 173 -10 164 -15 192 -37 187 -11 -3 -19 -2 -19 3 0 4 -138 11
-307 15 -170 4 -310 9 -312 11 -5 5 28 66 39 74 10 7 50 96 50 109 0 6 4 11 8
11 10 0 42 141 42 182 0 14 4 28 9 30 5 2 12 27 16 55 6 50 5 53 -19 64 -14 7
-26 15 -26 19 0 3 -33 15 -72 25 -40 10 -75 22 -79 27 -3 4 -50 18 -105 30
-54 12 -101 25 -104 29 -3 4 -53 15 -112 25 -60 10 -108 22 -108 26 0 4 -15 8
-32 9 -18 0 -57 6 -87 12 -46 10 -56 16 -64 40 -8 25 -5 31 25 58 58 51 68 59
74 59 4 0 26 16 50 35 23 19 47 35 53 35 6 0 16 9 23 20 7 11 17 20 23 20 26
0 255 225 255 250 0 6 11 20 25 32 14 12 25 27 25 34 0 7 6 17 13 21 8 4 17
17 22 28 21 49 10 85 -26 85 -11 0 -19 4 -19 8 0 5 -30 19 -67 32 -38 13 -70
26 -73 30 -8 10 -196 100 -208 100 -7 0 -12 4 -12 9 0 5 -16 16 -35 25 -19 9
-35 20 -35 24 0 4 -18 16 -40 26 -22 11 -40 23 -40 27 0 4 -17 18 -37 30 -21
13 -45 30 -55 39 -10 8 -30 25 -45 37 -16 12 -47 38 -69 57 -23 20 -47 36 -53
36 -6 0 -32 11 -58 25 -88 45 -148 72 -187 85 -21 7 -47 19 -57 28 -17 15 -15
17 29 49 26 18 51 33 57 33 5 0 22 7 37 14 28 15 239 46 309 46 21 0 39 4 39
9 0 4 35 11 78 15 135 12 306 37 312 45 3 4 28 14 55 21 51 14 175 76 175 88
0 4 20 16 45 27 25 11 45 23 45 27 0 5 11 13 25 18 28 11 34 47 10 56 -8 4
-15 11 -15 16 0 5 -20 36 -45 68 -25 32 -45 63 -45 69 0 6 -5 11 -10 11 -6 0
-15 11 -20 25 -5 14 -17 28 -25 31 -8 4 -15 10 -15 15 0 12 -90 143 -101 147
-5 2 -9 8 -9 13 0 6 -18 34 -40 63 -22 29 -40 58 -40 63 0 6 -7 13 -15 17 -8
3 -15 10 -15 16 0 6 -18 35 -40 64 -22 29 -40 58 -40 63 0 6 -7 13 -15 17 -8
3 -15 12 -15 19 0 8 -10 25 -22 38 -13 14 -32 44 -42 67 -10 23 -23 42 -28 42
-5 0 -13 12 -18 26 -6 14 -21 40 -35 58 -14 18 -25 38 -25 44 0 7 -8 20 -17
30 -10 10 -27 36 -38 58 -11 21 -22 41 -26 44 -10 9 -39 73 -35 78 6 6 270
-31 276 -39 9 -12 224 -29 370 -29 186 0 550 21 550 32 0 4 22 8 49 8 26 0 76
3 110 6 49 6 61 10 61 25 0 9 -5 19 -12 21 -14 5 19 229 36 240 15 10 15 530
0 549 -6 8 -19 75 -29 149 -9 74 -21 137 -24 140 -4 3 -18 68 -30 145 -13 77
-27 142 -31 145 -4 3 -15 54 -24 113 -9 59 -21 115 -26 125 -11 21 -30 134
-23 145 5 8 44 -13 78 -44z m1418 -1805 c-18 -8 -33 -18 -33 -23 0 -5 -25 -12
-55 -16 -30 -3 -57 -11 -60 -16 -4 -5 -17 -9 -31 -9 -13 0 -24 -4 -24 -10 0
-5 -14 -10 -30 -10 -18 0 -33 -6 -36 -15 -4 -10 -20 -15 -45 -15 -26 0 -42 -5
-45 -15 -4 -8 -14 -15 -24 -15 -10 0 -25 -7 -34 -15 -8 -8 -23 -15 -33 -15
-10 0 -24 -9 -31 -20 -7 -11 -18 -20 -25 -20 -18 0 -67 -24 -67 -32 0 -5 -7
-8 -16 -8 -8 0 -39 -16 -68 -35 -29 -19 -58 -35 -64 -35 -6 0 -15 -6 -19 -12
-4 -7 -18 -19 -30 -25 -13 -7 -33 -19 -45 -25 -13 -7 -29 -21 -36 -30 -7 -10
-18 -18 -24 -18 -5 0 -23 -12 -38 -27 -15 -16 -46 -43 -69 -62 -23 -19 -41
-38 -41 -42 0 -4 -10 -19 -22 -32 -66 -69 -99 -119 -170 -255 -64 -126 -70
-160 -34 -203 13 -15 26 -34 28 -41 3 -8 21 -13 50 -12 39 1 52 7 89 42 67 63
207 185 240 207 16 11 36 30 45 43 8 12 20 22 26 22 6 0 21 10 33 23 12 12 40
36 61 53 21 18 53 43 69 56 17 14 38 27 48 31 9 3 17 11 17 16 0 5 16 18 35
30 20 11 41 25 48 31 30 25 91 61 140 82 28 12 57 27 64 34 7 6 29 15 50 19
21 4 57 15 79 26 62 28 217 43 384 36 142 -5 290 -24 300 -37 3 -4 47 -15 98
-25 50 -9 92 -21 92 -26 0 -5 9 -9 20 -9 21 0 75 -26 100 -48 18 -16 73 -47
122 -70 21 -9 38 -22 38 -29 0 -13 31 -84 40 -93 12 -11 30 -63 30 -85 0 -15
6 -25 14 -25 10 0 16 -17 20 -57 4 -32 11 -71 17 -88 5 -16 13 -73 16 -125 4
-56 11 -99 18 -105 7 -5 16 -30 19 -55 4 -25 9 -56 13 -70 4 -21 1 -19 -21 12
-14 20 -43 45 -64 55 -20 9 -41 23 -47 29 -5 7 -32 20 -60 29 -27 8 -64 22
-81 30 -66 30 -353 27 -374 -4 -3 -4 -30 -16 -60 -26 -30 -9 -59 -22 -65 -29
-5 -6 -23 -18 -39 -26 -35 -18 -186 -176 -186 -195 0 -7 -4 -15 -10 -17 -12
-4 -50 -109 -50 -137 0 -11 -6 -21 -12 -23 -10 -4 -13 -40 -13 -138 0 -98 3
-134 13 -137 6 -3 12 -13 12 -24 0 -23 37 -130 47 -138 5 -3 15 -19 24 -34 23
-42 147 -164 184 -181 18 -9 35 -22 38 -29 3 -7 28 -19 56 -27 28 -7 51 -17
51 -21 0 -10 140 -29 214 -29 68 0 175 17 191 30 6 5 33 16 60 25 28 10 54 24
58 31 4 8 14 14 20 14 13 0 74 48 118 93 15 15 30 27 34 27 4 0 15 10 26 23
18 22 18 15 12 -358 -3 -209 -10 -381 -15 -383 -4 -2 -8 -60 -8 -129 l0 -125
-37 7 c-21 4 -40 10 -43 14 -3 4 -34 15 -69 25 -47 13 -66 15 -74 7 -9 -9 -6
-13 11 -17 12 -4 22 -10 22 -14 0 -4 30 -15 67 -24 36 -9 75 -24 87 -31 11 -8
28 -15 36 -15 26 0 100 -60 106 -86 3 -13 10 -24 14 -24 4 0 13 -34 19 -75 10
-58 10 -88 1 -132 -7 -32 -15 -60 -19 -63 -4 -3 -15 -26 -25 -52 -14 -38 -25
-51 -60 -67 -23 -12 -49 -21 -57 -21 -8 0 -19 -4 -25 -9 -5 -6 -67 -15 -139
-21 -131 -12 -153 -18 -140 -40 5 -8 39 -11 109 -9 55 1 109 -1 119 -6 20 -9
23 -31 3 -38 -7 -3 -21 -36 -30 -73 -10 -38 -21 -73 -25 -79 -5 -5 -16 -37
-27 -70 -10 -33 -20 -62 -23 -65 -3 -3 -15 -23 -26 -45 -31 -61 -278 -295
-312 -295 -7 0 -13 -4 -13 -9 0 -5 -22 -17 -50 -27 -27 -10 -50 -21 -50 -24 0
-4 -27 -18 -60 -31 -33 -13 -60 -27 -60 -30 0 -4 -42 -14 -92 -24 -51 -10 -97
-21 -103 -25 -12 -9 -178 -30 -255 -33 -50 -2 -55 0 -58 20 -2 12 6 31 17 42
20 20 21 32 21 235 0 133 4 217 10 221 6 3 10 19 10 35 0 31 26 88 50 106 12
10 17 9 23 -2 6 -10 29 -14 85 -14 64 0 80 3 94 19 18 21 38 151 38 246 l0 62
43 11 c23 6 57 14 75 17 17 4 32 10 32 15 0 4 26 14 58 21 42 10 133 12 342
10 l285 -3 40 36 40 36 0 90 0 89 -54 55 c-29 29 -65 60 -80 67 -14 8 -28 16
-31 19 -3 3 -25 12 -49 20 -24 8 -49 19 -55 26 -7 6 -61 19 -122 27 -100 15
-120 15 -246 0 -76 -9 -138 -19 -138 -24 0 -4 -15 -11 -32 -14 -18 -4 -51 -15
-73 -25 -22 -9 -66 -25 -97 -34 -32 -9 -58 -21 -58 -25 0 -5 -16 -12 -36 -16
-20 -3 -55 -18 -77 -33 -22 -15 -49 -32 -60 -39 -11 -6 -24 -17 -28 -25 -7
-11 -9 -11 -9 0 0 9 -8 7 -26 -7 -15 -12 -34 -21 -43 -21 -10 0 -27 -9 -38
-20 -12 -10 -34 -22 -50 -26 -15 -3 -46 -16 -68 -29 -22 -12 -61 -28 -87 -36
-27 -7 -48 -16 -48 -20 0 -4 -43 -16 -95 -28 -52 -13 -95 -26 -95 -30 0 -4
-19 -14 -41 -21 -23 -8 -47 -19 -53 -25 -6 -6 -36 -21 -67 -33 -38 -16 -83
-48 -143 -104 -73 -68 -94 -94 -124 -157 -30 -64 -36 -89 -40 -162 -5 -98 7
-132 61 -173 34 -26 109 -37 121 -18 3 5 29 14 59 21 30 6 62 18 73 26 63 49
142 97 164 99 3 1 19 11 37 24 17 12 35 22 39 22 5 0 18 12 30 28 20 24 25 25
43 15 11 -7 34 -13 50 -13 27 0 30 -3 33 -37 3 -35 6 -38 37 -41 47 -5 101 6
101 20 0 14 30 48 42 48 12 0 10 -104 -3 -117 -6 -6 -15 -100 -21 -229 -6
-121 -12 -221 -13 -222 -6 -7 -155 21 -155 28 0 4 -18 10 -40 14 -39 6 -165
67 -222 107 -14 11 -31 19 -37 19 -5 0 -14 6 -18 14 -4 7 -23 21 -41 30 -28
14 -31 19 -22 37 6 11 22 24 36 29 13 5 24 14 24 19 0 5 8 11 18 15 40 13 102
69 102 91 0 25 -19 17 -83 -35 -34 -28 -67 -50 -74 -50 -7 0 -17 -8 -22 -18
-5 -9 -33 -26 -63 -36 -29 -11 -56 -24 -60 -30 -5 -7 -51 -11 -122 -11 -96 0
-117 3 -128 17 -7 9 -22 18 -33 20 -13 2 -25 18 -36 48 -9 25 -18 52 -22 60
-3 8 -10 47 -14 85 -8 64 -2 112 19 165 4 8 16 45 28 83 12 37 26 67 31 67 5
0 16 15 25 33 33 69 64 121 76 128 10 7 9 12 -3 25 -15 15 -19 13 -43 -19 -14
-18 -26 -39 -26 -45 0 -7 -8 -20 -17 -30 -10 -9 -24 -31 -32 -47 l-14 -30 -10
40 c-5 22 -13 42 -17 45 -4 3 -15 41 -25 85 -10 44 -22 82 -25 85 -4 3 -17 51
-30 108 -13 56 -26 102 -30 102 -4 0 -15 45 -25 100 -10 55 -21 100 -25 100
-4 0 -15 51 -24 113 -10 61 -21 121 -26 132 -19 45 -50 450 -50 662 0 67 -4
123 -9 125 -14 5 -19 1007 -5 1016 10 7 17 33 46 175 6 31 15 57 20 57 4 0 8
9 8 19 0 11 5 23 10 26 6 3 10 19 10 34 0 16 8 39 18 52 24 32 42 75 42 99 0
11 4 20 9 20 5 0 14 14 20 31 6 17 52 71 103 121 121 118 133 128 146 128 6 0
17 8 24 18 16 20 133 102 147 102 6 0 14 6 18 14 4 7 23 21 41 30 17 9 32 20
32 24 0 5 20 19 45 31 25 12 45 26 45 31 0 5 21 16 48 26 26 10 49 21 52 25 6
8 141 49 163 49 8 0 17 5 19 10 4 14 133 27 273 28 112 0 118 -1 88 -14z m496
-13 c3 -5 35 -13 71 -19 36 -5 92 -23 125 -40 33 -16 74 -33 92 -37 17 -3 34
-13 37 -21 3 -8 12 -14 20 -14 17 0 156 -127 156 -142 0 -6 11 -19 25 -30 14
-11 25 -26 25 -33 0 -8 7 -18 15 -22 16 -10 38 -107 30 -134 -6 -18 -56 -35
-89 -30 -11 2 -36 15 -55 31 -20 15 -47 31 -61 35 -14 5 -42 19 -62 31 -21 13
-44 24 -53 24 -8 0 -15 4 -15 8 0 8 -206 53 -242 52 -9 0 -18 5 -20 11 -13 38
-588 36 -588 -2 0 -5 -9 -9 -19 -9 -24 0 -154 -40 -161 -50 -3 -4 -26 -15 -52
-25 -26 -9 -49 -23 -51 -29 -3 -7 -24 -18 -47 -26 -22 -7 -46 -22 -51 -32 -5
-10 -16 -18 -25 -18 -8 0 -45 -25 -82 -56 -37 -30 -78 -64 -90 -75 -13 -10
-28 -19 -34 -19 -5 0 -22 -12 -37 -27 -15 -16 -44 -37 -64 -48 -21 -11 -40
-28 -43 -37 -3 -10 -14 -18 -25 -18 -10 0 -19 -5 -19 -11 0 -6 -20 -30 -44
-55 -25 -24 -49 -44 -55 -44 -6 0 -11 -6 -11 -12 -1 -23 -124 -136 -150 -139
-45 -4 -55 1 -73 34 -17 32 -17 35 -1 78 10 24 21 46 25 49 4 3 15 25 25 50
10 25 24 51 31 58 7 7 13 18 13 24 0 6 18 35 40 64 22 29 40 55 40 58 0 7 169
176 176 176 3 0 24 16 47 35 22 19 46 35 53 35 7 0 17 6 21 14 4 7 23 21 41
30 17 9 32 20 32 25 0 4 18 14 40 21 22 7 47 20 57 29 10 10 38 25 63 35 25
10 47 21 50 24 3 4 30 16 60 26 30 11 64 25 74 32 11 7 44 21 75 30 31 10 58
21 61 24 3 3 32 14 65 24 33 11 65 22 70 26 6 5 51 19 100 31 50 13 92 27 95
31 3 3 26 9 50 11 69 7 313 -2 319 -12z m-6128 -216 c10 -10 23 -14 28 -10 6
3 11 1 11 -4 0 -6 7 -11 16 -11 8 0 35 -13 59 -30 24 -16 52 -30 63 -30 11 0
25 -7 32 -15 7 -8 33 -25 59 -37 25 -12 57 -30 70 -40 13 -10 31 -18 41 -18 9
0 24 -8 33 -17 9 -10 33 -27 54 -38 21 -11 44 -28 51 -37 7 -10 20 -18 27 -18
8 0 20 -9 27 -20 7 -11 17 -20 21 -20 5 0 46 -29 92 -65 45 -36 88 -65 94 -65
5 0 15 -9 21 -20 6 -11 15 -20 21 -20 6 0 30 -16 53 -35 24 -19 48 -35 55 -35
6 0 11 -4 11 -9 0 -5 15 -18 33 -29 19 -11 42 -27 53 -35 73 -61 153 -121 177
-133 15 -8 27 -19 27 -24 0 -6 5 -10 11 -10 6 0 34 -18 63 -40 28 -22 60 -46
71 -54 11 -8 59 -44 107 -80 48 -36 92 -66 98 -66 5 0 14 -9 20 -20 6 -11 15
-20 20 -20 9 0 71 -43 122 -85 9 -8 29 -22 45 -31 15 -10 35 -24 43 -31 44
-39 119 -93 129 -93 6 0 11 -4 11 -9 0 -6 11 -16 24 -23 30 -16 178 -129 188
-143 5 -6 8 -6 8 0 0 6 5 2 11 -7 5 -10 16 -18 24 -18 8 0 20 -8 27 -18 7 -10
20 -21 28 -25 30 -14 52 -31 121 -93 9 -8 20 -14 25 -14 5 0 23 -11 39 -25 71
-59 134 -105 144 -105 5 0 15 -9 21 -20 6 -11 17 -20 25 -20 8 0 20 -9 27 -20
7 -11 17 -20 22 -20 5 0 28 -17 50 -37 79 -71 106 -93 114 -93 5 0 20 -9 33
-20 46 -40 118 -90 128 -90 6 0 15 -9 21 -20 6 -11 17 -20 24 -20 8 0 37 -22
66 -50 29 -27 56 -50 61 -50 5 0 9 -4 9 -9 0 -5 14 -18 30 -28 l31 -20 -48
-36 c-26 -20 -57 -43 -68 -51 -81 -62 -115 -86 -125 -86 -6 0 -13 -7 -16 -15
-5 -13 -64 -49 -69 -43 -1 2 -14 19 -28 39 -15 20 -27 43 -27 51 0 21 -136
200 -212 281 -21 22 -38 42 -38 45 0 3 -10 16 -22 29 -14 15 -21 34 -20 58 1
28 -4 37 -26 49 -15 8 -36 23 -46 35 -11 12 -25 21 -33 21 -7 0 -13 6 -13 13
0 13 -74 47 -103 47 -9 0 -17 4 -17 10 0 5 -19 14 -42 20 -24 7 -57 19 -75 27
-17 8 -36 12 -42 9 -6 -4 -11 -3 -11 2 0 5 -37 17 -82 27 -46 10 -85 22 -88
26 -3 4 -57 15 -120 24 -63 10 -117 21 -120 25 -3 4 -50 8 -104 9 -110 1 -112
2 -195 81 -59 56 -81 90 -81 126 0 13 -8 28 -17 33 -10 5 -55 45 -99 88 -194
187 -233 223 -240 223 -4 0 -42 36 -86 80 -43 44 -81 80 -85 80 -3 0 -38 31
-77 69 -81 77 -218 206 -355 331 -51 47 -119 111 -152 143 -32 31 -65 57 -74
57 -21 0 -19 -39 3 -47 23 -8 82 -73 82 -90 0 -7 11 -19 25 -25 14 -6 25 -17
25 -25 0 -7 4 -13 9 -13 6 0 34 -25 64 -55 30 -30 59 -55 65 -55 6 0 17 -12
24 -27 7 -16 23 -32 36 -38 12 -5 22 -15 22 -21 0 -7 16 -25 36 -40 20 -16 54
-45 75 -66 21 -20 54 -48 73 -63 19 -15 38 -35 41 -46 4 -10 11 -19 16 -19 5
0 46 -36 91 -80 45 -44 84 -80 85 -80 3 0 55 -44 79 -67 7 -7 14 -13 17 -13 2
0 25 -20 50 -45 26 -25 50 -45 54 -45 5 0 31 -21 60 -48 28 -26 60 -52 70 -58
10 -6 19 -17 21 -25 2 -11 -12 -14 -60 -13 -35 1 -65 -2 -68 -7 -3 -4 -36 -13
-74 -19 -38 -6 -87 -19 -110 -29 -23 -10 -60 -24 -84 -31 -23 -7 -42 -17 -42
-22 0 -4 -6 -8 -14 -8 -19 0 -79 -32 -89 -47 -4 -7 -14 -13 -22 -13 -7 0 -22
-11 -32 -23 -10 -13 -28 -29 -41 -36 -12 -6 -22 -18 -22 -26 0 -7 -13 -23 -30
-35 -16 -12 -30 -28 -30 -35 0 -8 -6 -18 -13 -22 -7 -4 -21 -28 -32 -53 -11
-25 -22 -47 -25 -50 -15 -14 -40 -111 -40 -156 0 -48 -17 -104 -32 -104 -5 0
-8 7 -8 15 0 9 -7 18 -15 21 -8 3 -25 27 -37 52 -13 26 -31 54 -40 64 -10 10
-18 22 -18 27 0 8 -60 114 -77 136 -4 6 -17 28 -28 49 -11 22 -28 48 -37 58
-10 10 -18 22 -18 27 0 8 -60 114 -77 136 -4 6 -17 28 -28 50 -11 22 -23 42
-28 43 -4 2 -14 18 -22 35 -8 18 -35 66 -60 107 -25 41 -50 87 -57 103 -7 15
-15 27 -19 27 -4 0 -17 21 -30 48 -12 26 -26 49 -29 52 -4 3 -19 28 -34 55
-45 84 -61 110 -68 113 -4 2 -19 27 -33 55 -27 54 -30 60 -82 143 -18 28 -33
56 -33 62 0 6 -6 15 -13 19 -6 4 -23 28 -35 53 -49 93 -81 152 -95 173 -8 12
-17 39 -21 60 -4 20 -11 37 -16 37 -6 0 -10 14 -10 30 0 17 5 30 10 30 6 0 10
17 10 38 0 20 3 67 7 105 6 64 8 69 56 117 28 28 59 50 71 50 12 0 30 7 40 15
11 8 32 15 47 15 14 0 32 6 39 14 15 20 64 25 189 20 78 -2 108 -7 122 -19z
m6569 -958 c53 -16 138 -56 164 -77 68 -57 130 -120 149 -150 11 -19 24 -37
27 -40 4 -3 15 -26 26 -52 10 -27 22 -48 26 -48 4 0 5 -7 2 -15 -4 -8 0 -22 7
-31 21 -25 18 -250 -4 -289 -9 -16 -17 -38 -17 -47 0 -21 -30 -88 -47 -106 -7
-7 -13 -18 -13 -24 0 -9 -110 -121 -156 -158 -26 -21 -93 -50 -115 -50 -10 0
-19 -4 -19 -8 0 -41 -401 -43 -430 -3 -3 4 -25 15 -50 25 -50 20 -50 20 -136
102 -82 79 -144 174 -144 220 0 8 -4 14 -9 14 -15 0 -33 134 -28 202 8 98 17
139 39 188 11 24 24 55 29 67 5 13 13 23 19 23 5 0 10 6 10 13 0 16 94 116
148 156 110 85 211 113 372 106 58 -3 125 -11 150 -18z m-5158 -689 l92 -92
-60 -13 c-32 -7 -79 -13 -104 -14 -25 -1 -37 -3 -27 -6 41 -11 -5 -33 -70 -33
-14 0 -21 -4 -18 -10 3 -5 -3 -10 -14 -10 -11 0 -26 -6 -33 -13 -7 -6 -31 -21
-52 -32 -43 -22 -62 -36 -106 -77 -15 -16 -33 -28 -39 -28 -6 0 -11 -5 -11
-10 0 -6 -11 -22 -24 -35 -13 -13 -32 -44 -42 -69 -11 -25 -22 -46 -26 -46 -5
0 -8 -10 -8 -22 0 -13 -4 -30 -9 -37 -8 -12 -13 -11 -30 10 -11 13 -26 35 -32
49 -7 14 -21 34 -31 45 -27 30 -88 123 -88 135 0 5 -11 17 -25 26 -14 9 -25
21 -25 26 0 19 175 198 194 198 4 0 23 11 44 24 20 13 55 30 77 36 22 7 43 17
46 22 7 11 198 48 249 48 22 0 40 5 40 10 0 31 49 1 132 -82z m333 -138 c6 -4
48 -10 95 -14 117 -9 230 -27 230 -37 0 -5 8 -9 18 -9 22 0 145 -40 152 -50 3
-4 29 -15 58 -25 28 -11 52 -22 52 -26 0 -3 21 -14 48 -24 26 -10 50 -24 54
-31 4 -6 30 -20 58 -30 34 -12 50 -24 50 -35 0 -10 -6 -19 -12 -21 -8 -3 10
-30 45 -69 31 -35 57 -67 57 -71 0 -8 19 -32 58 -72 12 -13 22 -27 22 -30 0
-4 16 -27 35 -50 19 -24 35 -48 35 -55 0 -6 7 -14 15 -17 8 -3 17 -14 20 -23
3 -10 13 -26 23 -37 9 -10 26 -36 37 -56 11 -21 22 -38 26 -38 4 0 17 -28 30
-62 12 -35 26 -65 30 -68 4 -3 15 -30 25 -60 9 -30 21 -60 25 -66 5 -6 18 -55
29 -109 11 -54 25 -103 30 -110 5 -6 15 -46 21 -89 6 -42 18 -83 25 -91 11
-10 14 -49 14 -156 0 -139 -1 -143 -27 -178 -35 -46 -42 -51 -79 -51 l-32 0
-17 93 c-9 50 -20 97 -24 102 -4 6 -16 51 -26 100 -10 50 -21 95 -25 100 -4 6
-17 55 -29 110 -12 54 -26 102 -30 105 -5 3 -14 25 -21 50 -6 25 -22 62 -36
82 -13 21 -24 41 -24 46 0 5 -13 26 -30 48 -16 21 -30 43 -30 47 0 5 -12 22
-27 37 -16 15 -55 58 -88 94 -33 36 -64 66 -68 66 -5 0 -40 32 -78 70 -102
104 -115 96 -99 -65 14 -145 13 -358 -2 -392 -21 -45 -75 -94 -113 -100 -40
-6 -94 12 -113 39 -7 10 -20 18 -28 18 -8 0 -20 11 -26 25 -6 13 -19 27 -29
30 -17 6 -18 15 -12 99 3 58 1 126 -7 177 -13 83 -46 179 -62 179 -11 0 -10
-10 6 -65 8 -26 18 -72 22 -102 3 -29 10 -56 15 -59 12 -7 12 -84 0 -84 -4 0
-11 -42 -14 -92 -6 -88 -30 -178 -49 -178 -4 0 -8 -5 -8 -12 0 -6 -7 -20 -17
-30 -35 -39 -240 -15 -307 36 -42 32 -86 121 -86 174 0 27 -5 42 -16 46 -12 5
-14 13 -9 33 12 50 27 45 105 -32 75 -74 100 -89 100 -60 0 21 -328 340 -349
340 -14 0 -16 -11 -12 -80 2 -44 6 -82 11 -85 4 -3 10 -45 14 -95 18 -241 39
-452 46 -470 12 -27 40 -430 39 -551 -2 -131 -8 -154 -44 -176 -42 -24 -73 -7
-94 52 -9 25 -19 47 -22 50 -4 3 -15 52 -25 110 -10 58 -21 107 -25 110 -3 3
-17 79 -29 170 -13 91 -26 167 -30 170 -6 5 -41 249 -40 288 0 12 -4 22 -8 22
-5 0 -17 64 -26 143 -10 78 -22 147 -26 152 -4 6 -13 53 -19 105 -11 88 -14
97 -44 122 -18 15 -35 28 -40 28 -4 0 -24 17 -45 38 l-37 37 0 138 c0 94 4
140 12 145 6 4 19 27 29 52 10 25 34 60 54 79 48 46 134 111 148 111 5 0 12 4
14 10 2 5 30 19 63 31 33 11 62 24 65 29 3 4 40 15 83 25 42 9 77 21 77 25 0
5 15 11 33 13 45 6 250 -4 262 -13z m-1045 -280 c0 -6 7 -13 15 -16 8 -4 15
-11 15 -16 0 -6 16 -32 35 -58 19 -26 35 -52 35 -57 0 -11 37 -43 49 -43 8 0
21 -149 13 -159 -1 -3 -43 -7 -93 -9 -131 -6 -199 25 -199 93 0 7 -8 21 -17
31 -15 14 -18 33 -16 98 1 43 6 89 11 100 5 12 17 47 26 79 9 31 21 57 27 57
5 0 9 7 9 16 0 9 20 -11 45 -45 25 -34 45 -66 45 -71z m6300 -260 c0 -5 6 -10
13 -10 25 0 86 -61 98 -98 7 -20 19 -48 27 -61 31 -46 24 -301 -8 -301 -4 0
-11 -12 -14 -26 -6 -22 -20 -40 -89 -115 -17 -19 -18 -19 -53 3 l-35 23 6 285
c4 166 11 290 17 298 12 14 38 16 38 2z m-4459 -304 c177 -177 203 -218 145
-224 -16 -2 -39 1 -50 6 -110 52 -136 62 -173 67 -39 6 -42 9 -46 43 -3 20 -6
46 -6 57 -1 11 -4 55 -7 98 -4 48 -2 77 4 77 5 0 65 -56 133 -124z m1667 56
c2 -29 7 -52 13 -52 5 0 9 -14 9 -31 0 -44 29 -230 40 -254 5 -11 19 -71 31
-132 12 -62 26 -113 30 -113 12 0 23 -110 11 -122 -28 -28 -272 105 -272 149
0 7 -6 16 -13 20 -7 4 -21 28 -32 53 -11 25 -24 48 -30 52 -5 4 -12 62 -13
131 -3 102 -1 126 12 139 8 9 23 35 32 58 9 23 29 54 43 69 34 35 114 89 126
87 6 -2 11 -26 13 -54z m-2713 -202 c-23 -25 -57 -26 -72 0 -17 26 -35 109
-27 122 4 6 30 -13 62 -45 55 -55 56 -56 37 -77z m1610 40 c3 -5 22 -10 41
-10 19 0 34 -4 34 -9 0 -11 44 -20 150 -31 47 -4 99 -15 115 -24 17 -9 36 -16
44 -16 32 0 146 -34 159 -46 7 -8 22 -14 32 -14 29 0 58 -37 62 -81 3 -32 0
-39 -14 -39 -14 0 -18 -8 -18 -37 0 -58 -19 -158 -30 -161 -5 -2 -10 -15 -10
-28 0 -26 -36 -104 -48 -104 -4 0 -16 -18 -26 -40 -11 -22 -23 -40 -28 -40 -4
0 -7 -5 -5 -12 4 -23 51 -40 100 -36 26 2 48 0 50 -5 1 -4 119 -8 262 -8 197
-1 262 -5 272 -15 7 -7 13 -31 13 -53 0 -23 5 -41 10 -41 12 0 14 -167 3 -172
-5 -1 -16 -34 -26 -73 -17 -67 -17 -70 0 -83 22 -16 88 -11 131 11 35 17 42
10 42 -44 0 -16 4 -29 8 -29 4 0 14 -34 21 -75 13 -80 42 -128 84 -140 24 -7
53 -18 94 -37 14 -7 60 -13 104 -12 60 1 85 6 114 22 20 12 42 22 49 22 6 0
30 -17 52 -39 23 -21 52 -42 65 -46 13 -4 42 -20 64 -35 22 -15 52 -30 66 -33
16 -4 29 -16 33 -29 8 -27 10 -127 3 -148 -12 -34 -15 -487 -6 -655 6 -99 10
-191 10 -204 -1 -13 3 -29 8 -35 4 -6 11 -77 14 -157 13 -321 29 -555 39 -573
6 -11 14 -72 19 -135 10 -141 27 -269 39 -296 9 -22 15 -56 30 -179 5 -43 14
-84 20 -91 6 -7 17 -66 25 -131 8 -65 19 -120 25 -122 17 -6 12 -89 -5 -96 -8
-3 -15 -11 -15 -19 0 -7 -11 -24 -25 -37 -14 -13 -25 -27 -25 -32 0 -12 -65
-109 -89 -134 -12 -12 -21 -24 -21 -28 0 -8 -63 -105 -84 -128 -9 -10 -16 -21
-16 -25 -1 -12 -37 -53 -47 -53 -5 0 -17 26 -27 58 -10 31 -22 62 -25 67 -4 6
-16 37 -26 70 -10 33 -21 65 -25 70 -5 6 -18 44 -30 85 -13 41 -26 80 -30 85
-5 6 -16 39 -25 75 -9 36 -21 70 -26 76 -4 6 -13 35 -19 65 -6 30 -16 63 -21
74 -5 11 -11 31 -13 45 -1 14 -8 39 -15 55 -7 17 -16 50 -20 75 -5 25 -16 59
-25 75 -9 17 -16 48 -16 70 0 49 -18 115 -30 115 -6 0 -10 19 -10 41 0 23 -8
78 -17 123 -16 79 -13 136 7 136 6 0 10 -7 10 -15 0 -8 4 -15 9 -15 4 0 16
-21 26 -48 10 -26 24 -54 31 -63 8 -8 14 -19 14 -22 0 -4 13 -28 29 -54 16
-27 33 -60 36 -75 4 -15 13 -32 21 -39 7 -6 34 -53 60 -105 25 -52 50 -94 55
-94 5 0 9 -4 9 -9 0 -13 47 -111 74 -156 29 -46 66 -123 66 -136 0 -5 4 -9 9
-9 5 0 16 -21 25 -46 14 -41 48 -83 70 -84 14 0 -3 52 -33 100 -16 25 -34 61
-41 80 -8 19 -17 37 -20 40 -12 9 -40 73 -40 89 0 9 -9 22 -20 29 -11 7 -20
18 -20 26 0 12 -56 114 -77 141 -5 6 -17 30 -27 55 -11 25 -25 50 -31 55 -6 6
-17 26 -25 45 -7 19 -18 42 -25 50 -6 8 -20 34 -30 58 -10 23 -24 47 -32 53
-7 6 -13 17 -13 24 0 7 -22 51 -50 99 -55 96 -59 117 -30 148 11 12 20 27 20
34 0 11 58 125 111 219 15 28 37 69 49 92 11 23 36 62 54 86 19 24 37 55 41
68 4 13 12 27 18 31 12 7 1 38 -27 73 -68 87 -96 126 -96 135 0 5 -5 10 -10
10 -6 0 -14 8 -17 18 -4 9 -35 54 -70 99 -35 46 -63 87 -63 92 0 6 -9 15 -20
21 -11 6 -20 15 -20 21 0 11 -57 91 -85 120 -15 15 -14 20 9 55 14 22 30 45
36 52 6 6 7 12 3 12 -4 0 0 5 10 11 9 5 17 16 17 23 0 6 12 28 26 47 14 19 32
49 39 67 8 17 19 32 24 32 6 0 11 6 11 13 0 7 13 31 30 53 16 21 30 44 30 49
0 6 16 32 35 59 19 27 35 55 35 62 0 7 8 17 18 23 16 9 16 11 0 28 -10 9 -18
12 -18 7 0 -6 -11 -23 -24 -37 -13 -14 -33 -46 -46 -71 -12 -25 -26 -46 -31
-46 -5 0 -9 -5 -9 -11 0 -6 -13 -29 -28 -52 -15 -23 -34 -54 -41 -69 -8 -16
-18 -28 -23 -28 -4 0 -8 -5 -8 -10 0 -6 -14 -32 -31 -58 -101 -155 -111 -174
-104 -208 3 -18 9 -34 13 -36 14 -6 122 -136 122 -147 0 -6 6 -11 14 -11 13 0
36 -31 76 -100 8 -14 35 -52 60 -84 25 -32 50 -67 57 -79 6 -11 15 -22 21 -26
5 -3 16 -27 25 -53 14 -43 14 -49 -3 -80 -11 -18 -31 -57 -45 -85 -15 -29 -30
-53 -35 -53 -5 0 -14 -17 -20 -37 -7 -21 -20 -47 -29 -58 -24 -30 -41 -63 -41
-80 0 -8 -4 -15 -10 -15 -9 0 -30 -37 -84 -148 -40 -81 -56 -67 -56 49 0 48
-4 71 -13 75 -8 3 -11 17 -9 39 2 20 0 35 -6 35 -6 0 -12 30 -15 67 -8 115
-31 298 -37 303 -8 5 -50 340 -51 405 -1 22 -5 45 -9 50 -4 6 -16 90 -26 188
-10 97 -22 177 -26 177 -5 0 -8 15 -8 34 0 99 -10 124 -76 189 -35 34 -64 65
-64 69 0 4 -29 36 -64 72 -35 35 -65 69 -67 75 -2 6 -62 72 -133 148 -71 76
-160 172 -197 213 -38 41 -93 100 -123 130 -29 30 -56 63 -60 74 -4 13 -13 17
-31 14 -21 -4 -25 -1 -25 18 0 13 -5 24 -11 24 -5 0 -8 4 -5 9 7 11 -43 111
-55 111 -5 0 -9 6 -9 13 0 14 -152 166 -192 192 -16 9 -28 24 -28 31 0 8 -11
20 -25 26 -14 6 -25 15 -25 19 0 5 -13 15 -30 24 -43 22 -69 53 -63 76 3 10 1
25 -5 32 -5 6 -15 37 -22 67 -6 30 -18 69 -26 85 -22 49 -47 152 -41 169 7 18
52 22 62 6z m4189 -102 c53 -51 116 -111 140 -132 30 -27 42 -45 38 -58 -4
-17 -17 -18 -168 -18 -150 0 -164 -2 -164 -17 0 -20 28 -103 39 -118 4 -5 18
-41 30 -79 27 -81 24 -86 -56 -86 -29 0 -53 -4 -53 -10 0 -5 -9 -10 -19 -10
-29 0 -36 36 -14 68 23 35 24 173 1 223 -33 71 -31 82 16 130 42 43 86 121 86
153 0 9 5 16 10 16 6 0 10 7 10 15 0 8 2 15 4 15 3 0 48 -42 100 -92z m-1146
-175 c7 -72 -67 -119 -148 -94 -85 25 -41 111 58 111 15 0 34 5 42 10 26 17
45 7 48 -27z m-284 -69 c8 -20 -3 -66 -18 -79 -7 -5 -15 -18 -19 -28 -4 -10
-23 -25 -42 -33 -19 -8 -35 -19 -35 -24 0 -6 -13 -10 -30 -10 -16 0 -30 5 -30
10 0 6 -6 10 -13 10 -8 0 -22 9 -31 19 -17 19 -17 21 8 45 14 14 34 26 44 26
10 0 27 9 37 20 10 11 25 20 34 20 9 0 27 9 41 20 30 24 46 25 54 4z m506
-143 c17 -12 17 -80 0 -91 -11 -7 -182 -21 -187 -16 -6 6 74 105 87 109 28 8
85 7 100 -2z m234 -17 c3 -9 6 -31 6 -50 l0 -34 -68 0 c-38 0 -71 3 -75 6 -11
11 44 74 64 74 11 0 19 5 19 10 0 16 47 11 54 -6z m-1056 -23 c-2 -3 -10 -18
-17 -33 -8 -16 -20 -28 -28 -28 -7 0 -13 -5 -13 -10 0 -6 -12 -22 -26 -35 -22
-20 -38 -25 -79 -25 -54 0 -65 8 -65 50 0 12 13 21 45 30 25 7 45 16 45 21 0
4 16 11 35 15 19 3 35 10 35 14 0 10 39 18 58 12 7 -3 11 -7 10 -11z m505 -10
c14 -6 26 -20 29 -34 8 -43 -7 -63 -59 -77 -26 -8 -50 -16 -53 -20 -6 -8 -122
-41 -127 -36 -13 13 79 136 103 136 6 0 14 6 17 14 3 8 18 16 34 19 15 2 29 5
30 6 1 0 13 -3 26 -8z m-3682 -102 c46 -6 86 -15 89 -18 3 -4 56 -18 119 -31
63 -13 126 -29 140 -36 14 -8 35 -14 47 -14 28 0 35 -9 24 -29 -17 -31 -48
-106 -61 -148 -6 -24 -15 -43 -19 -43 -4 0 -13 -33 -20 -72 -7 -40 -20 -91
-30 -113 -10 -22 -26 -74 -36 -115 -10 -41 -23 -78 -29 -82 -14 -10 1 -22 20
-15 8 4 15 17 15 29 0 13 7 36 15 51 8 15 22 56 31 90 10 34 21 64 24 67 4 3
12 34 19 70 15 78 32 130 48 147 6 7 14 31 18 53 10 59 39 86 101 93 l52 6 11
-46 c11 -40 10 -47 -6 -59 -10 -7 -21 -14 -25 -14 -6 0 -44 -57 -64 -100 -52
-104 -84 -181 -84 -199 0 -12 -4 -21 -8 -21 -4 0 -16 -31 -26 -70 -10 -38 -21
-70 -25 -70 -4 0 -13 -27 -19 -60 -7 -33 -18 -63 -25 -67 -7 -4 -18 -21 -25
-38 -8 -16 -23 -48 -33 -70 -32 -64 -45 -180 -32 -285 7 -49 19 -100 27 -112
9 -12 16 -29 16 -38 0 -35 152 -220 182 -220 4 0 8 -7 8 -15 0 -8 7 -15 16
-15 9 0 18 -9 21 -20 3 -10 13 -22 24 -25 10 -3 21 -16 25 -27 8 -28 165 -183
204 -203 16 -9 30 -21 30 -28 1 -11 60 -55 116 -85 13 -7 24 -17 24 -23 0 -5
11 -9 25 -9 33 0 32 18 -1 31 -33 12 -87 56 -77 62 5 2 47 2 96 -1 l87 -5 0
-83 0 -84 -63 0 c-54 0 -68 4 -107 33 -25 17 -77 64 -116 104 -50 50 -74 69
-82 61 -7 -7 14 -34 72 -92 86 -86 126 -116 151 -116 8 0 15 -4 15 -10 0 -6
31 -10 73 -10 l72 0 14 -57 c7 -32 19 -71 26 -88 15 -32 55 -270 55 -323 0
-18 5 -32 10 -32 6 0 10 -27 10 -60 0 -33 -4 -60 -10 -60 -5 0 -49 -39 -96
-86 -72 -71 -89 -83 -96 -70 -5 9 -14 16 -19 16 -6 0 -18 9 -27 19 -20 22 -95
40 -141 33 -35 -5 -81 -52 -81 -83 0 -10 -8 -27 -18 -37 -10 -10 -25 -36 -34
-58 -21 -51 -42 -55 -63 -9 -10 19 -31 46 -49 60 -17 14 -37 30 -45 36 -7 7
-33 14 -56 17 -42 4 -46 2 -100 -51 -40 -39 -61 -69 -70 -102 -8 -25 -21 -53
-30 -61 -8 -9 -15 -22 -15 -30 0 -8 -4 -14 -10 -14 -5 0 -10 6 -10 13 0 14
-22 46 -57 84 -13 13 -23 30 -23 37 0 8 -7 16 -15 20 -8 3 -15 16 -15 30 0 15
-7 25 -20 29 -12 3 -20 14 -20 26 0 12 -4 21 -10 21 -5 0 -10 14 -10 30 0 17
-5 30 -11 30 -5 0 -15 14 -20 30 -7 19 -18 30 -30 30 -14 0 -19 7 -19 30 0 17
-4 30 -10 30 -5 0 -12 11 -16 25 -3 14 -12 25 -20 25 -8 0 -14 8 -14 18 0 10
-11 34 -26 53 -14 19 -34 52 -44 74 -33 69 -58 107 -79 122 -12 8 -21 20 -21
28 0 8 -8 18 -17 24 -15 8 -8 19 50 85 52 60 70 89 82 134 9 31 20 65 26 75 5
9 17 66 26 125 9 59 20 109 25 110 4 2 8 15 8 29 0 18 -5 24 -17 21 -13 -2
-21 -18 -27 -53 -6 -28 -13 -52 -16 -55 -3 -3 -14 -50 -23 -105 -10 -54 -21
-102 -25 -105 -4 -3 -14 -25 -22 -49 -8 -24 -20 -45 -27 -48 -7 -3 -13 -11
-13 -17 0 -7 -18 -29 -41 -49 l-41 -37 -26 21 -27 22 48 51 c67 71 118 178
125 261 2 36 9 65 13 65 5 0 9 39 9 86 0 86 20 152 57 192 6 6 17 46 24 87 7
41 17 75 21 75 4 0 8 36 8 80 0 44 -4 80 -8 80 -4 0 -13 31 -20 69 -12 73 -70
194 -97 205 -8 3 -15 11 -15 18 0 8 -21 33 -47 56 -27 24 -55 50 -64 57 -9 8
-21 15 -27 15 -6 0 -13 8 -16 18 -4 10 -14 27 -24 38 -10 11 -27 32 -36 47
-10 15 -25 27 -32 27 -8 0 -14 4 -14 8 0 12 -75 92 -86 92 -6 0 -20 14 -32 30
-13 17 -27 30 -33 30 -6 0 -16 6 -23 13 -8 7 -33 19 -57 27 -24 8 -47 19 -51
24 -4 6 -27 11 -52 11 l-46 0 0 37 c0 20 5 40 11 43 16 11 140 -15 175 -36 17
-11 38 -19 47 -19 9 0 22 -8 29 -18 7 -10 28 -24 45 -31 18 -7 42 -22 54 -32
24 -20 59 -26 59 -9 0 6 -11 15 -25 20 -14 5 -28 16 -31 23 -3 8 -23 20 -44
27 -22 7 -48 21 -58 30 -9 9 -40 25 -67 34 -28 10 -58 22 -69 28 -10 5 -42 12
-71 15 l-53 6 -6 45 c-3 24 -6 64 -6 88 0 38 3 44 25 50 14 3 25 10 25 15 0 4
19 13 42 19 37 11 76 27 213 90 22 10 69 26 105 36 36 10 67 21 70 25 18 25
262 36 401 18z m2889 -24 c0 -22 -6 -38 -15 -41 -8 -4 -15 -13 -15 -21 0 -22
-29 -73 -43 -73 -6 0 -23 -9 -37 -20 -27 -21 -60 -26 -60 -10 0 6 -8 10 -18
10 -25 0 -42 20 -42 50 0 48 12 70 39 76 26 6 72 25 81 34 9 10 65 28 88 29
19 1 22 -4 22 -34z m501 -5 c6 -16 15 -30 20 -30 5 0 9 -4 9 -10 0 -5 -6 -10
-13 -10 -7 0 -18 -9 -25 -20 -7 -11 -19 -20 -27 -20 -15 0 -125 -57 -135 -70
-3 -4 -15 -9 -27 -12 -51 -13 -11 73 72 158 34 35 49 42 88 43 22 1 30 -5 38
-29z m173 -66 c12 -5 16 -20 16 -60 0 -30 -4 -54 -9 -54 -4 0 -11 -26 -15 -57
-12 -106 -10 -103 -78 -103 -49 0 -63 4 -77 21 -24 29 -53 18 -77 -29 -10 -20
-26 -42 -34 -49 -12 -9 -15 -51 -18 -240 -3 -267 -5 -289 -32 -296 -16 -4 -20
-14 -20 -46 0 -34 -3 -41 -19 -41 -30 0 -51 11 -51 26 0 8 -4 14 -10 14 -6 0
-10 30 -10 70 0 39 4 70 9 70 8 0 22 201 25 354 1 65 -2 81 -17 90 -14 9 -23
4 -55 -32 -29 -33 -44 -42 -70 -42 -31 0 -32 2 -32 39 0 42 -14 61 -33 42 -12
-12 -57 -15 -57 -3 0 9 66 52 80 52 5 0 14 8 19 18 5 9 31 26 58 36 26 11 50
22 53 26 3 3 32 19 65 34 120 56 130 61 143 79 7 9 21 17 30 17 9 0 32 9 50
20 18 11 40 20 50 20 9 1 28 7 42 15 27 16 50 18 74 9z m-951 -65 c0 -29 -6
-55 -12 -57 -6 -2 -11 -12 -11 -22 0 -10 -19 -34 -41 -55 -38 -34 -45 -37 -82
-31 -50 8 -47 5 -54 49 -5 32 -1 41 34 77 22 22 45 40 51 40 6 0 17 8 24 18
14 18 66 42 83 37 6 -1 9 -26 8 -56z m-1768 -70 c51 -44 105 -102 105 -110 0
-6 18 -34 40 -63 22 -29 40 -58 40 -64 0 -7 4 -12 9 -12 5 0 17 -22 27 -50 18
-51 42 -65 51 -30 6 22 6 22 27 14 9 -3 16 -11 16 -17 0 -5 11 -25 25 -43 36
-47 91 -153 106 -205 7 -24 19 -49 26 -54 8 -6 16 -28 19 -50 4 -22 12 -45 19
-51 14 -11 39 -99 50 -176 4 -27 10 -48 14 -48 4 0 16 -53 26 -117 10 -65 23
-124 29 -132 13 -17 13 -340 0 -349 -6 -4 -18 -52 -27 -107 -10 -54 -22 -102
-26 -105 -5 -3 -12 -26 -16 -52 -9 -59 -21 -61 -30 -6 -4 23 -16 51 -27 62
-15 16 -18 30 -15 61 3 21 13 44 21 51 21 15 22 94 2 94 -10 0 -16 -13 -18
-41 -3 -39 -5 -42 -35 -44 -37 -3 -40 6 -22 64 13 41 20 58 48 123 12 26 21
56 21 67 0 12 5 21 10 21 16 0 8 112 -7 118 -9 2 -13 -9 -13 -37 0 -56 -20
-144 -36 -156 -7 -5 -19 -32 -26 -60 -7 -27 -17 -53 -23 -57 -13 -10 -47 -10
-41 0 2 4 9 43 15 87 6 43 15 82 20 85 11 7 41 173 41 228 0 23 4 42 8 42 14
0 33 90 38 184 6 94 -15 237 -36 244 -5 2 -10 10 -10 19 0 19 -31 76 -47 86
-7 4 -13 14 -13 22 0 7 -13 24 -29 37 -16 13 -34 33 -40 46 -6 12 -18 22 -26
22 -8 0 -15 7 -15 15 0 8 -11 17 -25 21 -14 4 -24 9 -21 12 6 6 -32 80 -51
100 -7 7 -13 19 -13 26 0 7 -29 47 -65 89 -36 42 -65 79 -65 81 0 9 -70 76
-79 76 -14 0 -19 35 -9 54 10 17 20 14 53 -15z m-174 -79 c32 0 61 5 64 10 14
23 95 -29 95 -60 0 -5 5 -10 10 -10 6 0 16 -11 22 -25 6 -14 17 -25 25 -25 7
0 13 -6 13 -14 0 -8 6 -21 13 -28 58 -63 78 -128 39 -128 -10 0 -24 6 -30 13
-17 16 -273 17 -293 1 -8 -6 -41 -19 -74 -29 -33 -10 -65 -24 -71 -32 -6 -7
-16 -13 -21 -13 -6 0 -16 -7 -23 -15 -13 -15 -50 -21 -50 -7 0 22 37 148 46
157 6 6 17 29 24 53 7 23 17 42 22 42 4 0 8 7 8 16 0 19 27 70 53 98 9 11 17
24 17 29 0 4 12 -1 26 -12 20 -16 41 -21 85 -21z m-1827 -96 c3 -9 6 -40 6
-69 0 -45 -4 -55 -25 -69 -14 -9 -25 -23 -25 -31 0 -8 -8 -19 -18 -24 -10 -5
-26 -36 -36 -67 -10 -32 -24 -68 -31 -79 -7 -11 -19 -44 -26 -72 -7 -29 -16
-53 -20 -53 -7 0 -21 -94 -34 -217 -5 -43 -3 -63 4 -63 6 0 11 9 11 19 0 11 4
22 9 25 4 3 11 40 15 83 7 80 33 204 45 213 4 3 15 31 25 63 10 31 22 57 27
57 5 0 9 9 9 20 0 11 5 20 10 20 6 0 10 8 10 18 0 23 54 64 74 56 24 -9 21
-66 -4 -82 -14 -9 -20 -23 -20 -50 0 -20 -7 -50 -16 -67 -8 -16 -20 -52 -26
-79 -6 -28 -19 -66 -29 -86 -15 -29 -43 -201 -37 -229 4 -19 -16 -121 -23
-121 -5 0 -9 -36 -9 -80 0 -44 4 -80 9 -80 4 0 11 -21 15 -46 8 -60 32 -130
56 -165 11 -15 20 -32 20 -38 0 -6 9 -15 20 -21 11 -6 20 -17 20 -25 0 -8 8
-20 18 -27 10 -7 24 -28 31 -45 7 -18 17 -33 22 -33 5 0 9 -4 9 -10 0 -5 10
-20 23 -34 31 -34 47 -54 47 -60 0 -3 15 -22 33 -41 17 -20 48 -54 67 -75 19
-22 40 -40 46 -40 5 0 20 -13 32 -30 13 -16 31 -30 41 -30 10 0 21 -9 24 -20
3 -11 14 -20 24 -20 11 0 34 -11 53 -25 19 -14 41 -25 50 -25 28 0 52 -24 44
-43 -5 -15 -14 -17 -48 -12 -22 4 -45 11 -51 15 -5 4 -39 16 -75 26 -36 9 -90
31 -120 48 -54 29 -210 174 -210 194 0 6 -13 20 -30 32 -16 12 -30 28 -30 36
0 8 -9 14 -20 14 -11 0 -20 -7 -20 -16 0 -15 7 -24 94 -118 25 -27 46 -52 46
-57 0 -4 24 -29 54 -54 61 -53 198 -125 238 -125 17 0 31 -8 38 -20 9 -16 21
-20 63 -20 64 -1 83 -14 93 -65 9 -53 32 -105 44 -105 6 0 10 -8 10 -18 0 -10
16 -41 35 -68 19 -27 35 -54 35 -61 0 -7 6 -16 13 -20 7 -4 21 -28 31 -53 9
-25 30 -64 47 -87 16 -23 29 -44 29 -48 0 -4 11 -16 25 -27 14 -11 25 -26 25
-34 0 -8 7 -17 15 -20 8 -4 15 -11 15 -18 0 -6 14 -29 30 -50 17 -22 30 -47
30 -56 0 -10 8 -28 18 -41 16 -20 82 -150 82 -160 0 -2 -67 0 -150 5 -82 5
-150 13 -150 18 0 4 -24 8 -52 8 -29 1 -89 8 -133 16 -44 9 -93 18 -110 21
-16 3 -32 9 -35 12 -9 11 -60 31 -80 31 -11 0 -27 8 -37 19 -10 10 -33 21 -51
24 -18 4 -53 20 -77 37 -24 16 -48 30 -53 30 -5 0 -17 11 -26 25 -9 14 -21 25
-27 25 -5 0 -41 33 -79 73 -38 39 -78 81 -90 93 -11 12 -20 25 -20 30 -1 5
-14 25 -30 44 -17 19 -30 39 -30 45 0 6 -9 21 -20 33 -19 20 -31 22 -115 22
-57 0 -95 4 -95 10 0 6 -8 10 -17 10 -70 0 -154 62 -187 138 -11 23 -22 42
-25 42 -12 0 -31 81 -31 132 0 100 13 125 113 216 14 12 30 22 37 22 13 0 4
101 -10 110 -4 3 -18 82 -30 175 -12 94 -26 178 -31 187 -12 23 -12 338 0 338
5 0 11 12 14 28 23 113 30 140 43 159 8 12 14 33 14 47 0 60 110 272 190 365
21 24 60 79 60 84 0 3 29 33 64 69 34 35 68 74 75 86 6 12 18 22 26 22 8 0 22
11 32 25 21 28 38 32 47 9z m411 -164 c3 -5 13 -10 22 -10 21 0 132 -72 133
-85 0 -6 25 -34 55 -62 30 -29 55 -60 55 -69 0 -12 -4 -14 -12 -6 -17 13 -132
32 -194 32 -72 0 -207 -21 -224 -36 -8 -7 -26 -15 -40 -19 -40 -10 -151 -103
-211 -177 -17 -21 -38 -38 -48 -38 -13 1 -12 4 7 19 12 11 22 30 22 44 0 13 7
44 15 67 8 23 15 55 15 71 0 16 4 29 8 29 4 0 14 27 21 60 15 66 29 75 66 40
51 -48 146 -25 158 37 12 61 21 88 31 100 13 15 112 17 121 3z m1655 -50 c3
-4 22 -11 43 -15 58 -11 227 -131 227 -162 0 -7 7 -16 15 -19 8 -3 24 -26 35
-50 12 -24 26 -46 31 -50 5 -3 9 -20 9 -38 0 -19 7 -49 15 -69 20 -48 24 -165
6 -176 -8 -5 -16 -32 -19 -59 -3 -33 -11 -57 -23 -68 -11 -9 -19 -27 -19 -39
0 -13 -7 -29 -16 -36 -9 -7 -20 -22 -25 -34 -19 -43 -80 -115 -97 -115 -5 0
-15 -7 -22 -15 -7 -8 -23 -15 -36 -15 -13 0 -24 -3 -24 -8 0 -9 -72 -32 -100
-32 -12 0 -31 -5 -43 -12 -12 -6 -39 -11 -59 -11 -21 1 -40 -3 -44 -8 -7 -13
-71 -11 -80 2 -3 6 -17 9 -30 6 -13 -2 -24 -1 -24 2 0 4 -22 13 -49 20 -27 7
-59 20 -70 29 -11 9 -44 35 -74 57 -53 39 -97 90 -129 149 -9 17 -21 36 -25
41 -51 59 -48 394 4 436 7 6 13 17 13 23 0 7 13 27 30 46 16 19 29 39 30 44 0
10 68 76 77 76 3 0 22 14 43 30 21 17 62 38 91 47 30 9 56 20 59 25 13 17 269
16 280 -2z m-1455 -209 c3 -5 20 -13 38 -17 43 -9 100 -36 110 -51 4 -7 14
-13 22 -13 7 0 22 -10 32 -23 10 -13 26 -26 36 -30 11 -4 21 -16 24 -27 3 -10
15 -26 27 -33 26 -17 80 -117 91 -167 4 -19 13 -38 19 -42 15 -10 15 -266 1
-276 -6 -4 -17 -27 -24 -52 -12 -43 -54 -121 -86 -157 -51 -61 -123 -122 -152
-129 -13 -4 -23 -9 -23 -13 0 -13 -44 -29 -96 -36 -27 -4 -56 -9 -64 -12 -25
-9 -174 -4 -246 7 -70 11 -191 69 -201 97 -3 8 -16 19 -30 24 -13 5 -28 20
-33 34 -5 14 -13 25 -18 25 -13 0 -77 108 -92 155 -7 22 -16 45 -20 50 -30 39
-21 269 11 304 10 11 19 28 19 38 0 10 16 42 35 72 19 29 35 59 35 66 0 8 9
16 19 20 10 3 22 17 25 30 4 14 11 25 17 25 6 0 20 11 31 25 11 14 26 25 33
25 8 0 18 6 22 13 10 15 67 42 110 51 18 4 35 12 38 17 4 5 69 9 145 9 76 0
141 -4 145 -9z m3479 -203 c34 -7 63 -15 66 -18 11 -14 155 -30 267 -30 120 0
265 15 295 30 26 14 107 15 121 1 6 -6 13 -38 14 -69 6 -197 25 -457 34 -468
6 -7 15 -55 19 -106 20 -211 32 -314 40 -333 5 -11 17 -90 26 -175 9 -85 20
-157 24 -160 4 -3 13 -54 21 -115 13 -94 13 -114 1 -137 -7 -16 -17 -28 -22
-28 -5 0 -11 -8 -15 -19 -3 -10 -16 -30 -28 -43 -13 -14 -31 -41 -41 -62 -9
-20 -21 -36 -25 -36 -5 0 -14 -14 -21 -30 -7 -17 -20 -36 -29 -43 -9 -7 -23
-25 -31 -41 -8 -17 -25 -41 -37 -54 -13 -14 -23 -31 -23 -39 0 -7 -7 -16 -15
-19 -8 -4 -15 -10 -15 -15 0 -6 -18 -34 -40 -63 -22 -29 -40 -58 -40 -64 0 -7
-5 -12 -10 -12 -6 0 -14 -10 -19 -22 -5 -13 -25 -43 -45 -68 -20 -25 -36 -50
-36 -56 0 -7 -7 -14 -15 -18 -8 -3 -15 -11 -15 -17 0 -7 -18 -36 -40 -65 -22
-29 -40 -58 -40 -64 0 -5 -4 -10 -10 -10 -5 0 -17 -16 -26 -35 -9 -19 -19 -35
-23 -35 -4 0 -18 -20 -30 -45 -12 -25 -27 -45 -32 -45 -5 0 -17 -16 -26 -35
-9 -19 -22 -35 -28 -35 -6 0 -18 52 -29 122 -10 68 -22 129 -27 138 -9 17 -49
273 -49 313 0 14 -4 27 -9 29 -10 3 -41 239 -41 307 0 22 -4 42 -9 46 -12 7
-19 87 -30 339 -6 119 -14 212 -20 215 -6 4 -12 223 -17 604 -6 497 -5 597 6
597 8 0 41 -5 74 -12z m-1703 -504 c-1 -21 -6 -41 -11 -44 -9 -6 -19 -57 -27
-137 -5 -60 -6 -63 -39 -73 -45 -15 -94 -57 -94 -80 0 -27 -24 -31 -139 -26
-71 3 -108 9 -119 19 -9 8 -28 18 -42 22 -14 4 -39 22 -56 39 -17 17 -54 51
-83 75 -28 24 -51 50 -51 57 0 18 57 19 63 2 5 -17 257 -18 278 -2 8 6 42 19
77 29 34 10 62 22 62 26 0 4 15 15 33 24 18 8 55 38 82 65 27 28 54 49 60 47
5 -2 8 -21 6 -43z m342 -161 c35 -66 40 -105 28 -233 -6 -68 -15 -127 -20
-130 -4 -3 -16 -26 -25 -51 -11 -30 -28 -52 -44 -60 -15 -8 -33 -19 -40 -26
-7 -7 -20 -9 -28 -6 -12 5 -15 16 -10 57 9 86 18 141 25 146 17 14 33 88 43
200 5 69 14 127 19 128 5 2 9 16 9 30 l0 27 14 -27 c8 -15 21 -40 29 -55z
m-1820 -139 c3 -3 2 -14 -3 -23 -4 -9 -13 -56 -20 -106 -6 -49 -15 -92 -19
-95 -4 -3 -13 -20 -20 -37 -8 -18 -17 -33 -22 -33 -5 0 -9 -4 -9 -10 0 -5 -20
-28 -45 -51 -44 -41 -46 -42 -130 -46 -66 -3 -91 0 -108 12 -12 8 -30 15 -40
15 -9 0 -20 7 -23 15 -4 8 -11 15 -16 15 -5 0 -28 15 -51 33 -23 19 -50 37
-59 40 -10 4 -18 13 -18 22 0 8 -4 15 -8 15 -14 0 -86 74 -115 118 -15 23 -22
42 -17 42 16 0 111 -30 139 -43 31 -16 273 -16 292 -1 8 6 41 19 74 30 33 10
62 20 65 23 10 11 50 31 63 31 7 0 19 9 27 20 14 19 50 27 63 14z m1450 -10
c9 -4 17 -12 17 -19 0 -19 30 -75 41 -75 5 0 9 -5 9 -12 0 -6 13 -32 29 -57
16 -25 35 -64 42 -86 8 -22 17 -42 21 -45 10 -8 29 -148 38 -285 7 -118 -1
-495 -20 -915 -12 -269 -13 -250 5 -250 12 0 15 13 15 60 0 42 5 66 17 80 32
37 101 23 181 -36 l52 -39 0 -118 c0 -105 -2 -119 -20 -134 -11 -10 -20 -23
-20 -29 0 -7 -10 -21 -22 -31 -13 -10 -35 -34 -50 -54 -15 -20 -42 -44 -61
-53 -19 -9 -37 -22 -40 -30 -3 -7 -18 -17 -33 -20 -15 -4 -37 -15 -50 -25 -12
-9 -41 -23 -65 -31 -24 -8 -46 -17 -49 -21 -3 -4 -22 -14 -42 -22 -21 -9 -38
-23 -38 -31 0 -8 -6 -17 -12 -19 -9 -4 -10 -8 -2 -14 11 -7 14 -22 30 -114 6
-35 5 -37 -29 -48 -20 -7 -37 -15 -39 -19 -2 -4 -34 -18 -73 -31 -38 -14 -72
-27 -75 -31 -10 -13 -125 -30 -207 -30 -81 0 -83 1 -83 24 0 13 -4 26 -10 28
-5 2 -17 40 -27 86 l-17 82 -41 2 c-22 0 -51 0 -65 -1 -14 -1 -73 3 -132 8
-86 7 -111 13 -129 30 -13 12 -27 21 -31 21 -13 0 -64 117 -78 179 -9 38 -10
86 -5 160 12 164 11 174 -16 227 -14 27 -31 68 -39 92 -7 23 -17 42 -22 42 -4
0 -8 5 -8 11 0 6 -11 25 -24 42 -14 18 -27 44 -31 59 -4 14 -16 36 -27 47 -10
12 -22 37 -25 57 -3 19 -10 37 -14 40 -5 3 -9 13 -9 24 0 10 -6 20 -13 23 -6
2 -27 34 -46 71 -19 36 -38 66 -43 66 -4 0 -8 9 -8 20 0 11 -7 23 -15 26 -8 4
-15 12 -15 19 0 8 -11 26 -24 42 -13 15 -31 44 -41 63 -10 19 -21 37 -26 40
-11 8 -89 129 -89 139 0 4 -16 29 -35 54 -19 25 -35 51 -35 56 0 6 -3 11 -8
11 -7 0 -32 70 -32 92 0 7 -6 24 -13 38 -24 46 -28 102 -9 116 20 16 82 18 82
4 0 -6 11 -15 25 -20 14 -5 25 -16 25 -24 0 -9 13 -25 30 -38 16 -12 32 -30
36 -40 3 -10 12 -18 20 -18 8 0 18 -10 23 -22 5 -13 23 -40 40 -62 17 -21 31
-42 31 -47 0 -4 6 -14 13 -21 6 -7 21 -31 32 -53 11 -22 27 -48 37 -58 9 -11
19 -31 23 -45 3 -14 15 -37 26 -50 10 -14 19 -29 19 -35 0 -11 73 -125 95
-148 8 -9 15 -20 15 -26 0 -11 70 -106 82 -111 4 -2 8 -10 8 -18 0 -8 4 -14 9
-14 4 0 14 -20 21 -45 7 -25 16 -45 20 -45 5 0 12 -12 18 -27 5 -16 24 -45 41
-67 17 -21 31 -44 31 -51 0 -6 9 -22 20 -35 11 -13 20 -27 20 -32 0 -4 6 -8
14 -8 13 0 18 32 40 262 4 42 -1 53 -21 37 -8 -7 -13 -34 -13 -73 0 -72 -9
-89 -41 -84 -23 3 -24 7 -27 85 -2 69 0 84 16 100 11 10 23 36 26 58 11 59 63
105 118 105 35 0 49 -6 80 -37 21 -20 38 -43 38 -49 0 -7 4 -14 9 -16 16 -6
69 -105 87 -162 10 -31 24 -56 31 -56 18 0 17 41 -2 66 -15 20 -22 154 -7 154
7 0 25 37 36 77 4 11 13 24 21 27 8 3 15 15 15 26 0 28 42 43 108 38 45 -4 59
-10 92 -43 22 -22 40 -47 40 -57 0 -10 7 -21 15 -24 8 -4 15 -11 15 -18 0 -12
70 -122 95 -147 8 -9 15 -23 15 -32 0 -10 8 -17 18 -17 16 0 21 15 35 100 10
54 17 111 17 125 0 14 5 25 10 25 6 0 10 62 10 165 0 103 -4 165 -10 165 -5 0
-10 22 -10 49 0 28 -4 52 -9 55 -5 3 -12 35 -16 71 -3 36 -11 67 -16 70 -5 4
-9 20 -9 36 0 39 -32 159 -42 159 -4 0 -8 65 -8 145 0 138 1 146 26 182 26 38
50 55 69 47 6 -2 18 -7 28 -10z m-50 -1098 c-1 -54 -6 -103 -12 -109 -6 -6
-11 -22 -11 -37 0 -55 -37 -63 -59 -12 -7 15 -24 44 -38 65 -33 47 -33 96 -2
117 13 8 39 30 59 48 57 52 65 43 63 -72z"/>
<path d="M7630 7434 c-57 -8 -107 -18 -110 -22 -3 -4 -25 -14 -48 -22 -41 -13
-112 -71 -112 -91 0 -5 -8 -17 -17 -27 -10 -10 -27 -36 -38 -58 -11 -21 -26
-45 -33 -53 -17 -17 -11 -45 10 -49 11 -2 20 8 28 32 6 20 15 36 18 36 4 0 16
19 27 42 25 52 87 113 140 138 41 19 146 40 203 40 18 0 32 5 32 10 0 6 14 10
30 10 20 0 30 5 30 15 0 18 -18 18 -160 -1z"/>
<path d="M6390 7323 c0 -18 11 -21 123 -31 130 -13 197 -28 210 -49 4 -7 14
-13 20 -13 15 0 119 -77 130 -96 4 -8 14 -14 22 -14 7 0 23 -13 35 -30 24 -34
60 -41 60 -12 0 10 -11 25 -25 32 -14 7 -32 24 -40 37 -9 12 -22 23 -29 23 -8
0 -21 11 -30 25 -9 14 -22 25 -28 25 -6 0 -26 11 -45 26 -18 14 -47 30 -63 36
-17 5 -30 14 -30 18 0 10 -106 27 -222 36 -83 6 -88 5 -88 -13z"/>
<path d="M6253 7153 c-18 -2 -33 -8 -33 -14 0 -5 -9 -9 -19 -9 -28 0 -151 -40
-151 -48 0 -5 -16 -14 -36 -21 -20 -7 -45 -24 -57 -37 -11 -13 -25 -24 -30
-24 -10 0 -80 -71 -110 -111 -32 -43 -77 -114 -77 -122 0 -4 -9 -28 -20 -51
-28 -63 -43 -177 -36 -278 6 -88 25 -178 37 -178 3 0 9 -13 12 -29 5 -25 41
-82 87 -138 6 -7 10 -16 10 -21 0 -13 92 -92 107 -92 7 0 17 -9 22 -19 13 -23
102 -74 159 -92 23 -7 42 -15 42 -19 0 -11 140 -30 218 -30 76 0 191 17 207
30 6 5 33 16 59 25 27 9 56 23 63 31 8 8 19 14 25 14 26 0 188 137 188 159 0
5 7 15 17 22 9 8 25 33 35 57 10 23 23 42 27 42 11 0 51 138 51 178 0 17 5 32
10 32 6 0 10 33 10 80 0 47 -4 80 -10 80 -5 0 -10 13 -10 28 0 15 -9 53 -20
85 -11 31 -20 66 -20 77 0 11 -4 20 -8 20 -5 0 -17 19 -28 42 -19 42 -167 198
-188 198 -6 0 -17 9 -24 20 -7 11 -19 20 -26 20 -8 0 -21 6 -29 14 -15 16
-129 56 -158 56 -9 0 -19 5 -21 11 -4 12 -213 21 -275 12z m253 -44 c32 -6 64
-15 71 -21 7 -5 16 -7 22 -4 5 3 11 3 13 -1 1 -5 34 -23 72 -42 83 -42 146
-94 221 -181 24 -28 83 -145 90 -180 4 -19 12 -41 19 -49 17 -21 15 -273 -2
-294 -8 -9 -11 -21 -7 -27 3 -5 2 -10 -2 -10 -5 0 -15 -20 -22 -45 -7 -25 -17
-45 -23 -45 -5 0 -6 -4 -3 -10 3 -5 1 -10 -4 -10 -6 0 -11 -5 -11 -12 0 -10
-72 -111 -96 -133 -6 -5 -18 -22 -27 -37 -10 -16 -25 -28 -35 -28 -9 0 -39
-14 -67 -30 -27 -16 -60 -30 -72 -30 -12 0 -26 -6 -30 -13 -23 -38 -254 -58
-387 -33 -49 10 -95 24 -103 32 -8 8 -22 14 -32 14 -10 0 -35 13 -57 30 -21
16 -45 30 -51 30 -7 0 -18 9 -25 20 -7 11 -18 20 -24 20 -14 0 -77 68 -95 102
-7 12 -18 28 -24 33 -7 6 -18 26 -25 45 -7 19 -19 42 -26 50 -17 20 -46 180
-45 246 2 75 29 216 43 226 7 4 9 8 3 8 -6 0 -6 3 0 8 6 4 19 26 29 50 11 23
22 42 25 42 4 0 15 15 26 33 24 42 67 87 82 87 6 0 18 9 26 21 15 20 72 56
137 85 19 9 49 22 65 30 71 32 241 43 351 23z"/>
<path d="M6561 6549 c-44 -47 -15 -106 47 -95 44 7 54 21 48 65 -6 40 -5 39
-43 47 -24 5 -35 1 -52 -17z"/>
<path d="M7190 6058 c0 -18 33 -112 42 -119 4 -3 16 -43 25 -90 10 -46 21 -85
25 -87 11 -5 10 -382 -1 -382 -5 0 -12 -13 -16 -30 -6 -27 -10 -30 -46 -30
-22 0 -50 5 -62 11 -32 16 -77 61 -77 75 0 7 -7 20 -16 29 -21 21 -41 103 -50
206 -4 44 -11 79 -15 79 -5 0 -9 9 -9 20 0 11 -4 20 -10 20 -13 0 -13 7 5
-140 9 -68 19 -127 23 -130 4 -3 14 -24 22 -48 14 -45 65 -112 84 -112 6 0 19
-9 29 -20 15 -18 27 -20 80 -18 l62 3 12 50 c18 80 16 389 -4 487 -9 46 -19
85 -22 88 -4 3 -15 31 -24 63 -10 31 -22 57 -28 57 -5 0 -9 7 -9 15 0 8 -4 15
-10 15 -5 0 -10 -6 -10 -12z"/>
<path d="M7380 5879 c0 -16 79 -92 118 -115 17 -10 32 -22 32 -25 0 -4 14 -15
30 -23 17 -9 44 -23 61 -32 53 -28 159 -39 239 -25 39 7 77 19 85 27 7 8 18
14 23 14 5 0 32 18 60 40 27 22 55 40 61 40 6 0 11 7 11 15 0 30 -30 27 -73
-9 -24 -20 -49 -36 -56 -36 -6 0 -11 -4 -11 -9 0 -20 -95 -41 -184 -41 -100 1
-145 13 -198 53 -19 15 -38 27 -41 27 -3 0 -31 25 -61 55 -50 51 -96 72 -96
44z"/>
<path d="M6708 5803 c-15 -20 -44 -41 -70 -49 -10 -4 -18 -11 -18 -16 0 -5
-15 -15 -34 -23 -19 -8 -40 -20 -48 -27 -18 -19 -118 -48 -161 -48 -19 0 -37
-6 -40 -12 -3 -10 -9 -10 -26 0 -11 6 -31 12 -42 12 -35 0 -132 33 -153 52
-11 10 -24 18 -29 18 -5 0 -31 16 -58 36 -57 42 -91 41 -63 -1 9 -14 21 -25
28 -25 6 0 29 -14 50 -30 22 -17 46 -30 53 -30 8 0 26 -9 42 -21 38 -28 90
-38 191 -39 92 0 151 12 174 36 9 8 32 22 52 30 20 8 41 19 48 25 29 24 113
80 134 89 12 5 22 16 22 25 0 21 -36 19 -52 -2z"/>
<path d="M7552 6607 c-27 -29 -28 -51 -2 -77 26 -26 65 -26 88 0 18 22 25 60
11 60 -5 0 -9 6 -9 14 0 32 -59 34 -88 3z"/>
<path d="M3577 5973 c-14 -13 -6 -29 22 -46 37 -22 46 -48 31 -92 -15 -47 -4
-63 24 -33 14 15 21 35 21 63 0 33 -7 47 -38 78 -38 37 -48 43 -60 30z"/>
<path d="M3291 5944 c-8 -10 -10 -19 -4 -23 10 -7 33 -66 33 -87 0 -7 -11 -26
-25 -42 -14 -17 -25 -37 -25 -46 0 -25 36 -19 48 9 6 14 16 25 21 25 6 0 13
16 17 36 5 29 1 48 -21 90 -16 30 -29 54 -29 54 -1 -1 -7 -8 -15 -16z"/>
<path d="M2736 5822 c-8 -13 4 -71 15 -78 19 -11 8 -34 -16 -34 -19 0 -25 -5
-25 -21 0 -17 5 -20 38 -17 34 3 37 5 40 38 5 62 -33 143 -52 112z"/>
<path d="M4028 4397 c-7 -14 -26 -45 -41 -71 -22 -35 -30 -62 -34 -121 -3 -42
-10 -78 -14 -81 -14 -8 -10 -34 5 -34 18 0 26 22 26 76 0 24 4 52 9 62 5 9 17
40 27 67 9 28 28 60 41 73 24 22 27 42 6 49 -6 2 -17 -7 -25 -20z"/>
<path d="M3203 4284 c-4 -11 1 -22 13 -30 57 -41 214 -211 214 -232 0 -6 6
-15 14 -19 14 -8 43 -55 87 -140 11 -24 25 -43 30 -43 4 0 14 -12 21 -27 14
-30 48 -44 48 -20 0 8 -9 24 -20 37 -11 13 -20 27 -20 32 0 9 -70 122 -90 145
-5 7 -10 15 -10 19 0 4 -21 35 -47 68 -26 34 -52 67 -58 74 -5 8 -20 24 -32
35 -132 127 -138 132 -150 101z"/>
<path d="M4041 3036 c-11 -13 -10 -17 12 -25 14 -6 28 -19 32 -30 3 -10 12
-22 20 -25 8 -3 15 -10 15 -16 0 -6 12 -28 26 -50 31 -47 29 -104 -5 -141 -12
-13 -21 -28 -21 -35 0 -23 -85 -32 -121 -13 -22 11 -51 34 -81 62 -17 16 -20
16 -34 2 -14 -13 -14 -15 0 -15 8 0 20 -9 26 -19 10 -20 63 -51 87 -51 7 0 13
-4 13 -10 0 -5 19 -10 43 -10 35 0 50 6 79 33 19 17 41 47 48 65 20 50 8 125
-27 175 -16 23 -33 50 -36 60 -4 9 -17 21 -31 27 -13 5 -26 14 -28 20 -2 8 -8
7 -17 -4z"/>
<path d="M3651 2568 c-5 -13 -12 -39 -16 -58 -7 -34 -63 -130 -77 -130 -11 0
-68 -51 -68 -61 0 -13 24 -11 51 4 41 21 99 87 106 118 3 16 9 29 13 29 11 0
33 97 25 110 -10 17 -25 12 -34 -12z"/>
<path d="M4296 2541 c-24 -5 -48 -19 -61 -35 -11 -14 -25 -26 -29 -26 -9 0
-38 -25 -126 -112 -92 -89 -123 -137 -176 -268 -10 -25 -21 -47 -24 -50 -11
-11 -31 -80 -25 -90 12 -19 33 -10 40 18 3 15 17 50 30 77 12 28 30 66 39 85
35 79 65 120 153 205 123 120 153 145 186 152 15 3 27 9 27 14 0 5 27 9 60 9
33 0 60 -4 60 -8 0 -5 11 -14 25 -20 14 -6 25 -18 25 -25 0 -8 11 -25 24 -38
13 -13 29 -41 37 -61 7 -21 17 -38 21 -38 5 0 17 -19 27 -43 19 -44 47 -75 58
-63 9 9 -19 87 -34 93 -7 3 -13 13 -13 23 0 11 -4 21 -9 25 -5 3 -12 19 -16
35 -4 17 -13 30 -21 30 -8 0 -14 6 -14 14 0 7 -17 33 -39 57 -38 43 -38 43
-112 46 -41 1 -92 -2 -113 -6z"/>
<path d="M4228 2298 c-32 -35 -68 -73 -80 -85 -22 -24 -19 -53 6 -53 8 0 18 9
21 20 3 11 15 25 26 30 10 6 19 16 19 22 0 7 18 29 41 50 38 36 44 38 105 38
35 0 64 4 64 8 0 21 -29 32 -83 32 l-60 0 -59 -62z"/>
<path d="M2345 3830 c-3 -4 -8 -49 -12 -99 -3 -51 -10 -94 -15 -97 -11 -7 -11
-141 1 -148 4 -3 11 -29 15 -58 8 -57 26 -130 36 -138 3 -3 12 -27 21 -55 10
-33 21 -51 33 -53 16 -4 18 0 12 29 -3 18 -10 35 -15 39 -4 3 -16 41 -26 85
-9 44 -22 86 -29 94 -15 19 -13 334 3 339 16 5 13 59 -4 65 -8 4 -17 2 -20 -3z"/>
<path d="M2735 2430 c-6 -9 41 -59 56 -60 3 0 18 -11 34 -24 15 -13 46 -30 69
-37 22 -7 43 -16 46 -20 5 -6 122 -29 148 -29 7 0 12 8 12 19 0 15 -13 20 -71
30 -76 12 -194 63 -203 87 -3 8 -12 14 -19 14 -8 0 -20 7 -27 15 -14 17 -36
20 -45 5z"/>
<path d="M4527 3632 c-32 -35 -10 -81 39 -82 41 0 58 46 30 83 -17 22 -49 22
-69 -1z"/>
<path d="M3128 3410 c-34 -32 -12 -79 38 -80 42 0 60 53 27 82 -23 20 -43 19
-65 -2z"/>
</g>
</svg>
